<mxfile host="app.diagrams.net" modified="2024-06-03T13:20:50.051Z" agent="Mozilla/5.0 (Windows NT 10.0; Win64; x64) AppleWebKit/537.36 (KHTML, like Gecko) Chrome/125.0.0.0 Safari/537.36 Edg/125.0.0.0" etag="PXYBc5OqevHguI8x7GHE" version="24.4.13" type="github">
  <diagram id="R2lEEEUBdFMjLlhIrx00" name="Page-1">
    <mxGraphModel dx="1042" dy="617" grid="1" gridSize="10" guides="1" tooltips="1" connect="1" arrows="1" fold="1" page="1" pageScale="1" pageWidth="850" pageHeight="1100" math="0" shadow="0" extFonts="Permanent Marker^https://fonts.googleapis.com/css?family=Permanent+Marker">
      <root>
        <mxCell id="0" />
        <mxCell id="1" parent="0" />
        <mxCell id="6jkIBEpxTAbTdTaplVtH-9" style="edgeStyle=orthogonalEdgeStyle;rounded=0;orthogonalLoop=1;jettySize=auto;html=1;" edge="1" parent="1" source="6jkIBEpxTAbTdTaplVtH-1" target="6jkIBEpxTAbTdTaplVtH-2">
          <mxGeometry relative="1" as="geometry" />
        </mxCell>
        <mxCell id="6jkIBEpxTAbTdTaplVtH-1" value="Empleado" style="ellipse;whiteSpace=wrap;html=1;" vertex="1" parent="1">
          <mxGeometry x="70" y="430" width="120" height="80" as="geometry" />
        </mxCell>
        <mxCell id="6jkIBEpxTAbTdTaplVtH-2" value="esta" style="rhombus;whiteSpace=wrap;html=1;" vertex="1" parent="1">
          <mxGeometry x="230" y="430" width="80" height="80" as="geometry" />
        </mxCell>
        <mxCell id="6jkIBEpxTAbTdTaplVtH-3" value="" style="shape=image;verticalLabelPosition=bottom;labelBackgroundColor=default;verticalAlign=top;aspect=fixed;imageAspect=0;image=data:image/png,iVBORw0KGgoAAAANSUhEUgAAAtkAAAFOCAYAAABTxgH4AAAAAXNSR0IArs4c6QAAAARnQU1BAACxjwv8YQUAAAAJcEhZcwAAFxEAABcRAcom8z8AAJXQSURBVHhe7f2HtyVHlt/3vj/irfW0xEeJj2Zoh0NRJCVREqVHoyeSkp4ouiHH9XC6x3Cabae9B7qBhvfee+8K3tsCUPDee9soAAWgG0AD3Wik8hOFXZ04k/fWrbrn1j3n1u+u9V3nZGZEZMSOvXf8Mk4W8P/4+c9/3oUQQgghhBCmR0R2CCGEEEIIUyYiO4QQQgghhCkTkR1CCCGEEMKUicgOIYQQQghhykRkhxBCCCGEMGUiskMIIYQQQpgyEdkhhBBCCCFMmYjsEEIIIYQQpkxEdgghhBBCCFMmIjuEEEIIIYQpE5EdQgghhBDClInIDiGEEEIIYcpEZIcQQgghhDBlIrJDCCGEEEKYMhHZIYQQQgghTJmI7BBCCCGEEKZMRHYIIYQQQghTJiI7hBBCCCGEKRORHUIIIYQQwpSJyA4hhBBCCGHKRGSHEEIIIYQwZSKyQwghhBBCmDIR2SGEEEIIIUyZiOwQQgghhBCmTER2CCGEEEIIUyYiO4QQQgghhCkTkR1CCCGEEMKUicgOIYQQQghhykRkhxBCCCGEMGUiskMIIYQQQpgyEdkhhBBCCCFMmYjsEEIIIYQQpkxEdgghhBBCCFMmIjuEEEIIIYQpE5EdQgghhBDClInIDiGEEEIIYcpEZIcQQgghhDBlIrJDCCGEEEKYMhHZIYQQQgghTJmI7BBCCCGEEKZMRHYIIYQQQghTJiI7hBBCCCGEKRORHUIIIYQQwpSJyA4hhBBCCGHKRGSHEEIIIYQwZSKyQwghhBBCmDIR2SGEEEIIIUyZiOwQQgghhBCmTER2CCGEEEIIUyYiO4QQQgghhCkTkR1CCCGEEMKUicgOIYQQQghhykRkhxBCCCGEMGUiskMIIYQQQpgyEdkhhBBCCCFMmYjsEEIIIYQQpkxEdgghhBBCCFMmIjuEEEIIIYQpE5EdQgghhBDClInIDiGEEEIIYcpEZIcQQgghhDBlIrJDCCGEEEKYMksW2R/+4oMQdggffPDBqA/uCH7R33usTyGEj/OLnrEY2hF88EHWpDAdVnW9GelPmF/oh8k5XrLI/ul7P+t5P4QV5/2f/az7YMQHdwTvvR8/D2EpiJWxGFpp5AY5YqxPIWwrbb3pH9rGfG2lee/98T6F+eT9PidO+tJWRfaHH/6ie/2tt7sDzrul2+Wka7vdTr0uhBXhB6dc133vxGu69Q882/vdh6P+uFLYzbCrcPb193ffOeHq0f6FEDYjRo677M62e7OjdwLlhnuffKn77olXdz8Y6VsIS8F6w4/vfOyFrneqUV9bKWrH85Sr7sl6s0b41vFXd2ddd3/LT0OhvVWR7e+FjW90/+hLx3Z/+RMHdL/6+weHsCL8jU8e3P3F39m/O/rSO5rfjfnjSiHp9Yqh+/yhF3d/4bf2G+1fCGEzf76PkX+/21l9lFpQdqzI9rdu/UPdX/zt/bq/8anx/oWwNaw3f/639m3CyN+Yr60UH/7iF+3zk/ue3/1/+j6M9S/MF//lb+zTfeagi5ovDXPikkX2P/nycd1f/Q8Hdr/2B4eEsCL8zd8/pPuV3z2gO+bSO5vfjfnjSlEi+wuHXdz9pV7oj/UvhLAZD8O/ufsqiuybH+5+5RP7t5wx1r8Qtgbf+Yu/s18vsh9oPjXmaytFiezf3+/87i/0fRjrX5gvPCx99uBliOz/5SvHd3/99w7q/qs/PDSEFeFv/cGh3V/pH+SOvWz1RPYXD7+k/WIz1r8QwmZ+pY+R3/rh2X2Uro7IvrAX2X+lfyCXM8b6F8LW4Dse1M6+fvVE9h/sf0H3l/o+jPUvzBd/4bf36z53yMXNlyKyw0wSkR3CfBCRHeadiOwwTSKyw8wTkR3CfBCRHeadiOwwTWZaZP+tPzik+8t9wvxr29H+3/z9g1ug/OqnDu7+9sj1MD9EZIcwH6wFke2d3GmL9M1tHjJ6LcwWEdm/hM/y3bFry/Fpms6a7t/zwfe//sm1uVm7IiKbqN0scg9ozgr/2ntbxK7J+3ufPqL77T3O6f7P75zaXiAfKzfGr/WT/w++cEz3yX3O7/7Rl49f0EnCfDDLIrv1rV/Uy8/rHwFPllsO7sGnx65Nk7/VsyPuE9YusyyyrT82XSpOJ69D7P69Tx8+Wn970ebf/ePD2/cI7dnH3PORWRTZcvRf+70DP1pvDmi6arLM1OjtIGb+Xu+7k2saP+bTrm9rrKj7f3zrlKbtfnP3sxu+/9Ovnbgm158VEdkm/n//5sndfufc3B1+4W3tvwrxO3ues01PKsr+4y8d3z39oze60665r/trfVJcaoL6q32S9Z/Aeeud97ovH3V5c8ixcmE+EMSzKLI9vP13/+nI7rsnXtMd1vv5ERff3n3pyMu7//o/HjbVBzt+vy0PqNtLBEBYLrMssv9Gv6b8/799SnfIBbe1dcG5oc/7T7f9L189oTv3pge7/3jAhdv1C+ok8sB/+5+O6E648u7ueydd0/qQOJttZlVk8xv88UEXdUf2a80hF2zofmP3s7pf7f12WG4aEPM02Kf7e51740PdP/yT41p8uNbWvc8c2Z145T3dt4+/ppVTfrKNMcTU//Xd07oLb3mkO+O6+7uzbnigce76h7oze3v/ky8fv+U+a4UVEdle8fjMR42++fZ73Uuv/6SfjKu7P/vv9m4J0H8KzafdBP/Jp9r9Uw+u6xiDv/7jd7vz129OnH+5dzrlfXcfk6EsPN1tPndQ92d+fc/ud/c+r93/m8dd1f6bl4JmWC7MD7MqsvnaP/yTY7tn+gfBn/38g27jW+90P/np+90uJ1/bYgLln37ZqV208nH1tVMx4ZoEppx7OS9mPtU/MJ7YL9Ji5K/1dYblPfmLA+Km2v2rbaej//5RexKgOhVrEvVf+Q+by2tDWZ//8nundWdd/2D3P37+6FZe/7QHfRqOPYQxZllk8/89Tr+xlXv8hde7/+FzRzWBUHHz535j3+5//9bJ3f1Pv9J978Rr239vu/xffMhBym6Js/5Yu9qocmL+b//R5h1zx3/uN/fp/pteZN/4wDN9/rqrXVdfX3zqZzvXYnBzu+ruiIfqMM6simwC9V/0AtV6Q1f9+N332/8M8M/9xj7Nl5Tho3J7+VT5avmUtcGxa2096Y/Fi3Kb14LNa4ry/8W/37v7Rq+fHnjmle6ff+Ok7s//5r6tLj3133/2qG79A891R1x0Rx8Hm+sPfVpfx3xa+1875sruvJseauua8fyrXU5vbysQ27+/3wVbxrJWWDGR/dlDNze615k3taee//mj1zd+rxe/Xzzisu4/9J/+pwUM/uvfP7PtCP7hAet6w1/QffnIy5vh/9GXjut+tOnt7uwbHmwJ7RN7ntN949ir+s9z26RJiHYkvnr0Fa28if2nXz+x++whl3T7n3tLL3x+0doy6c65FyGx1p6U1jrmb3ZF9nHdy5t+0t30wLPtCf3R51/rXnj1rfa60v/8xWPbzjZ/J1z/8ZePazsDf7D/uuaX/+vXTuwF8CHd7/c+//Xer/9TH4iS1z/9+kktyf5O7+d/dMCF3ZV3PNG91SfVrx97Zd/m5jhSXlv/bR83/9s3T27l/rBv94uHX9r9m13P6D5z8MXd5w69pAkJSVO8iR0C6L/+o8Pa8e/17XyhL6/u/9D3zy9OH/ziw27fs9f39Y5uP9995agrWhl9F3PD8YcwyayK7CYc+gfdy25/vPtJL05e+/G73Sf2OKfFsMXe2mD9sdO95xk3dv+uX5v+QR8TfF8Mi6VP9fFCBFijrDnWLTFh7REnXzn68r7+qf39D+zj5fg+Fi9r65N1zq9d4lV5P41/vb/fH/RtETr/6nunt3j/dB+zf9Lnin/ylRMSa6vIrIpsffJ/D/T3/VOu7z7Z++G/+8FZfb4/vfmlMr+717k95zWdYz34owMvbOvP/9SvGzSUtcHaIed73ePffv+MthZ8qq//+d7XP9v7uTXof+rXLxulX+r9d/fTbmj6TUx87ZgrWiz8b984ufveSdf27axrD5neVPj6MVe12LCJ4z7Wuf/U+7T7/6MvHd98Wn6w8WkX3C68MW3eJNq/O+zCDd0f9/2dXGfnnRUT2YzrfyN54/3Pdoes29Am467HX+pefv0n7TUOu9sPPbux7QDe+dhLvbOc2T3x4utNsLzz05+13QS70c9vfKs75ep7W+J+7pW3ulfeeLu9QsI5vtMnrpde/3Hb7b790Re7/99XT2iC/L2ffdCXe6cJBonuh6fd2L373s/a+bsef7nv8wnNMYZ9DrPLzIvs3pev6IXw/+tf79Ee7np90ZLFmdff3/vmT5t/HrrutiaA7T4Q4XzxnBsf7MX40d0N9z3Tvfja5rjwv4+3gL/21jvdcxvf7J790Zvdq2++4//u29331I9aMlP+pb683Yyv9ov1d064pvvxO+93z/ft8nNxJU7c45t9QpV4X3j1x+2chwCiwkPBxv5400/e7flpt+85N3f3P/VKs6/4knAvu+2xvo2fdz99/+fd6dfe/9FrMFn8w8LMqsi2Rv3DLx3XYuTUa+7rnnxpU7fbadd3v/3Dc/r4eruPt3fb+kQUv/Daj7vdT7+hj9kNfcz8pHvRGtNfv+iWR1rsui627n3yR02MiHk54I23f9pd38emB+zT+nh5r48bgt4OtrInXXVPL7jP7NexN1tcyQu/34spr1SKfWvf+/16eEyf57xyOfkebNgxzKrIpqtsnvi7vF9v/tnXT2q72Besf7h78JmN7RfL9X1et8N8aO9T1gf+yqcOOv+WtqlzX5/jN/baiL9+pV9nTurFLr/Dg8++0r317nvt4Y+QfqNfF264/5nu8V6XfbYXiQ8/92pbK554cVP3taOvbOuMjZl/32u3F1/bvKZZqwj+Y/vzP+7bKp8+8uI72nppt/ubx13dHXXJHd0/+8ZJW141saN++EW3df8xIvuX+FtcZF/U/aJXBoxucjz1PPbCa31ye729q+3v8tsf707tBbRJMKkW/Q0Pv9Dt31//ee9s3nM1oadfe197f+cnvfg+8Lxb+4T0fndUP2mehA7qj6+668k2wZ64Xu3FyRV3PtEdfMGG7he9yN77rJuak6x/8Nl23d8PTr1+zU3kWmYeRPbVvQ96TYngfb/3xSMuur0tnJf0QvXKO5/snunF8sHn39r6bxwX3/poS0Ke+HfpY+PA825pSe3qu59sx/5u7BOcXbQH+gfOF/uF/RO9WLYjvueZNzW/f/un73cX9e3UT+Di5c7HXux+2i/g+5y9vtvUL+IXb3i0/TQn4Yodnx5a7+jL6bcdNiLa6yjevfNdoiP0xa/k6Dzx7qc9u3RDG4QwZFZFNr+1+IvNg8/f0K9JG7t1vWi2Fvi7sl8zxJoYe7tfZ467/K7ukX7dEl/HX3532/n+/snXtbLn9/c45er7PEt3v9mP1U6g2L714efb62JiSixfsuGxtptoR89m0XnrH2qxZx2zmycnXHHXE93p193X2rWD/mi/Rj7QC6b/5tNHZDd7lZhVkf2rnzqk+/ufPaq9Puvv/qd/1H65P7/3Kzrp1/oytz3yQnf7oy81EevPmwS39prq0edfbe9w23g8vF+bHnvh9f6B8Om2KenPJsqXj7qiiegTrri7aa5nX3mj6a6N/UPoD/uHTn/0mTXOrzcEtDgg1K1F3+p92gMkPWbN8WdteqLXfDZN/+6nD+/+wm/t135RPbl/4PSA+9c/eWB7pfG/+I2925r2xwdeFJFd+FvKO9mErZ/q/klf7rn+qcqi///9k2PbU773tCU+YtjPZK/0k3bMpXe1fzT57ns/bzt9hDmnsiNu15vgkCgv6BPdURff2XbmIDEe3ydGOwS79snw33z/jDbxfpYgdvY/9+b2D1Debbty97Unp/wDlPlgHkS2nez/7F/v0R4g/RIj8fzsg1/0ierNtnvmlxu+yHd/d6/z2kL88/76Xmfe2Bbnu594uXunF7J2mPfoF1vJkNgVoBKbX3m8T+enZzsIdz/xUvP1q/pFer/etz2o+nXnjOseaDvgkq+42NC3DfcVOx5Gxc6dj7/URPzf+ePD2q9BkrLdh5+8+7N+gT+8xaa/f90nU6+z+CMmLD5DG4QwZFZF9q/8zv5bNnfEmb9HeuFho+aWh55rr2Od3gsK6xGBLB7E5DX3PNXEuJ1vP6V/0IsgYuRzh13aXkf8/GGXdKf16wlB/tTLb3Rv9msNgS62Paj+P//l7m1n+7leZBPsNz/4XNv08dP9pbc/3r57hYVgsStOoHhf3CuWEdmrw6yKbNj55RsH9Q91ft20CUII87+/8amDug29yCaqj+7912YLrXVAL1759GW3P9bqPNivHzZbbnv0hbYW+NX0H3/puKaJrr/36eZ/T768qemv/c/ZvPnzm32cXHDzI01T2QjyypN3w23A2Dn30CrubDaJFZ/WFa9NXX33U03H+bcJ3ue2thy27rb2OrDxeD3FrjqN5z9YEZH9Ef6WIrJ3PeW6PqEc1N7pJDbaT+SfP7olum8ce2Wf1NZtEdnEiqf/zxxySUtSdtckIS/ES0TqHLLu1u7gC7Ch2/TjzT9ncDLiwRPa271IOPqSO9s7cj/vk+Dmn/zebk9qHMOfn+71cTIRh9lk1kU2AX1tn0hK2G7+Oe2KJpSv65PWfmff3N5z3rMX1F6hslN99KV3tERnESeW7TKIj1seer7b84yb2o6yXbImsvvE2d7z7uPGAq6Ng/oY4NfX9Pf1c7Wfpf/l905v/0Jb8vtnfV8kS6+WXHPP092P+8X/4PNvaTvs3z7h6razYPfu7/zHXmS/9pHIvuyu9hD6L75zauu/Pz+f2xX35508cTO0QQhDZlFk2+TBtX0s+kXoW8df1eLErzNf6MXyb+9xdhO3HlQP6B9YvToiVr3mKEaJcTHr9cUP+nXJ2vaFfr2ysWPzxiaO9cl/McEDtrVJW14DkR+8nvVM/7Bts8gvW+LWu9/3PPlye9i9YP1D3dO9QP/bf3hYd20fq3JIRPbqMasim876vX3Oa69u/PNvnNxeNyKSvZrktaZf/8EZ7VU/awjx7ZdIr+nyuxdee6s9DFo76Coayq84fNa68/c/c1T7R7p++f95v24R6H7Z8esKYf0bfe7/t7ue0eLGn9dRaDOvXnkIpd38Z/nsrns4peP0xb9L4tNiaCiyaTTvdXvF0r8pogH9ivMPPn/Myv5nCVeBFRHZv9InOa9/+PPzg58m9j7zpvY0f+Gtj7SX6P3ZzbNb589iLtFIWJzH05X3qb0/dFY/sV/qk5qf4ryXem+PJzmT7J1SO3ue0PyMceN9z7Zdu2c3vtna9dOEXcX3+j772cPPfr+x29lNtA37HGaXWRbZnsYlmA8++LDtRhGpPzjl+vZah2TjFSg+e3b/oGhni/C20PtVhgD2mog/79R5X9vuQu242Tn2zp1E5u+2R17szr3poZYoiWQPnR4yD+kfGiUpr574KdsiLnF5b9vOhH8wKVHe2y/q6n2/f/C1kN9w39PtH7+8+fZPe/F+d/vHWP6I9C8feUV3T99/IkPC9W8ejGmtJcAwXWZRZNuh8z6q2PSL03/+b/ds/23eWtjveuKlLf9mQWwQyH4e98uOVzq8vvhbe5zTdrL9feGwS7ovf/QQqpxXQcT5Ey9tarvb/pG9OLYOETDHX3FXe0gmiAh0sWiXTy7Y7bQb2usiG998p/2D5JsffL795B6RvXrMqsj2X+nYrRfGHg49tHml9lvHXd398KPXYPkan7KT7QHPd5rLnx1nPvyjXozbVfZfDLHZ6M0CessGDjHo11B/HiC9fUBn2fAhtv17NrvU1oPdTr2hrXc2L4l+feLTNkf10Waqh9V/+KVjm0979aREtg1VD6X0nX98bw20lvlVaC2+jrgiIpv4sBtmZ8w7aCbCO9p+Bmdg/0UET1r+saOnH7to/oshdgRvfeSF9g6cXW4/n5kAxveU71/UetXj+Cvubj/zEfLa1673Tf/P75zSHMn7Pgece0vbxf6/vnta+08BHnXJ7e1Jzv39g5JhEg6zzayKbP8I8O/3i+HeZ61vPue/5+5dy7/7x0e0/9KNX04ssH5p8RMzkW3hPW/9w91xfWz8Tn/dz2l+OvNkb8G2y0xc+zcH/mEL0eK/PuA9ObvQ/gs7dtjEj/fdCGg7Za75Hy/5ryEQ6WLHDrT/BJPd6t1PEzv3t51wMSJJegD1jxn9oxj/2lwdsSimvLLlv27iu//Gr131LPpha8yiyPYzujXA64T+QbLrdti8Ry2WxAQ/9+vNP/3aCU18+MdfdreJh+c3/rg9GPs1yg6gNcVrVEf3ItyO9Ff72FbfL1DWK/+wXuz7h44n9+ftJsoR1h79sSsuFq1R/91njmr/mM2vUf4TZ/7rEd6jbf8DkN/P64yrwayKbK9W/KtdTmu6iv/I7/6rbP/rV09s+d/5fc66uf1jeMeEsgc4/zjRr5xeN+SD/h2cd6nFgv/yBz8kgOk42oyW2qf3V/7n9Q2/stJnXkGxxu3ei2j/BRw+S4M1bXbydU2b+dXWA6Lz5d/l03+n92nrIvFuN9374Daf7Kb7z956N3st+vyKiGxwVCKE4dp/q7cXts2IH70HXeeU+8u/u3/babCTR0hx8F/tHWpYBxZ5k9DOtc86dp+DPypf96xzm+/1N/u6PrWRd7HnC3M4iyK7+KU//tJH2/nmc5uP//xv7df+M2F2z7zj/Jd+Z7/N1wY+W3XLj41bO9X2Lxkr338q+9H3Lf3qj5X5WOx8dA4fK9fqVtz88j51TtkQFmNW38nG0Oc3rwu/jInyczFgx9AGkF945By7eP4IbD+pq1sx98uYqc9ac355bku8+eypWKzPzW1s7lc7/uh7WB3M36y+k13+tsV/PvKp8r32n8Pr/ders15d8hBoLPyLz/6pdaDV/aW//dJ3N+f7Wgeq3Oa6g+OP2tjS7hJ8Wn3/gJPY/sc9/qs//9UffrzMWmLlRHZPGRcmi+F9ur753OZy3vMksr1X7R+HSdS/9tEkf6yONra0t9kB2rFP5foyzk+eG9attsL8YE5nWWSXb0361xZf7BFodrn92dmykLv+sfo+e6relnaU+eh6u/ZRuc3Hm6ny7XvPlnaH37XRU21UXz/2vcq0tgbHH/U1hMWYdZFdft6O++8fj4vN1+rXI//g68FnXmnvTb/8+o/bwzHBMoyNzd8/auOj9rTx8djZfH5LjDn+qPzmsr/83q599D2sDuZuVkX2lrVg4D+oc4StvvuVxSuM/+K7pzZ/Vq/V518flfV96Htb2hqcq+vNn31X96Nrm8//8vvw2rDddu2j74V+EuZEeT0sDK+vJVZMZG8LDO1/muHnb+/oMPpYubBzIsBnWWQvBa9Q+Zl537Nv7v7510/qfXx5MRPCLDLLInupEAte+fqTIy/vDl63of1DRv/fBz+L/9oy2g3zwSyL7KVgbfF6h//Uq9eioqdWl5kQ2fCkRYjUTwwhFGtBZMPTOh+vp/8Q1hprQWRDff/IdwufzGuGOwvzLrJBR21ea8avhx3HzIhsSGJxijAJn1gLIhtZqMNaZq2IbGxej4rxMmHtYa7nXWQbQ9aa2WCmRHYIY6wlkR3CWmYtieywc7IWRHaYHSKyw8wTkR3CfBCRHeadiOwwTSKyw8wTkR3CfBCRHeadiOwwTZYlsp9/ZVP3P37u6O7P/ca+7T/DF8JK8Cu/c0D3Z//9Pt0RF9/e/G7MH1eKEtmfPujC7v/963uP9i+EsJk/08eI/1HLaons8298sPuz/27vljPG+hfC1uA7f+bX9+pO/+j/tDvmaytFiexP7HVO95/3fRjrX5gv/rN/s2f3R/1Dk79tE9kfftht3PTj7mtHX9794X7nd58+cF0IK8If93xq3/O6S297tHfTD0f9caX4xQebE98RF27oPrXPeaP9CyFs5pN9jOx1xg398vCL7oOReFpJ5IabH3imxamcMda/ELYG3/nk3ud2N9z7VBNGY762UvyiX2t+9rOfdQecu76PpXNH+xfmi//QPzAdsW5Dy0/DnLhVkf1BLz7ee+/97pXX3ujZFMKK8vKrr3dv/eTtPgnt2N2x4vU33+p+9Op430IImxEjr7/x1mgMrTR+dfrJ2+/2uWK8byEsFesNX1qN9eZnP/t591ofQz8a6VeYP/jSpjd/3DbshvO8VZENT1zvvvNOz9shrDjvv/feDv8Junjvp++O9imE8HF++u47ozG0I3j//fdH+xTCtvDO2z9Z1fVGDOnDWN/CfGEe6YfJOV6yyP7JT37S/fjHPw5hxfnpT3+6aknvnf5hcqxPIYSP8/bbb4/G0I7gvV4YjfUphG3hrbfeWtX1Rgzpw1jfwnxhHumHyTmOyA4zR0R2CLNPRHaYdyKyw7SIyA5zQ0R2CLNPRHaYdyKyw7SYeZGtc+++++7ota2h3vaKI+MSZIuNLw8YO5ZZF9lL8Zm1jIVhsVhll8TM2icie+VJrK0sEdkrD/9cbL1cKz480yJb2z/60Y+6F198cfT61njhhRe6V155Zat95NDDyfb55ptvds8991z3+uuv/6n6leC2lujCL2Gr7X3gKWZZZPORTZs2dc8++2z3xhtvbNXn5h32GPq+8b766qstZsYWh4oX9XxOXg+zgXlc7hypOxZDO4Llimx+utw8NclkrGwrY7H22muvbTXWVmIs80L58di1pRCRvZlp+ZA22LOOzQ9txYdpLceT5YcMr+1olpsTZ1pkm5QLLrigO/7441snl3qvctCjjjqqu+yyy9q/OB8rB2WJ+JtuuqkJ8kpOzz//fLfvvvt2991338ecw3XOceONN3ZXXnll9+ijj666E8w6bMae999//2hAwTnlJs8PmWWRrW+PPfZYt88++3RPPfXUxxbF5VABPnZtmtR9lhJjyj388MPdbbfd1uJMHeLmlltu6Q488MAmtod9Zosnnniiu+KKK7obbrihxdmOGFPYNsyjB8V777235cSF4tH5xfzE9bEY2hFsr8g2Htx9991t/FvLRUtFOxUrjhez2xgLxZrjAw44oNu4ceOfijX5x9ok1mxS7WyxxubWG2v3Qhsezi02x2y9muuNvunDWN92BOyDacQD/5P/rQ81H2xrfvbbb7+2GTpcL5V/6aWXumuuuaZBiK+WD+urPuurfi5kB+eVHbtmHvV/co6nIrI13P6TSh8Z0LHvDAwdkzB8d9214XXXTj755G7//fdvdTEsX5M1vAfqeM899+zOOeec1k/Hk+WgviRGUD/99NOtfYHFoF//+te7O++8s51T1v30wcSfe+65TTSccsopbfdyst3wS9hGoLKZRZzNyxd88gOLgYBm44UcWb1ZFNn6638i8Mgjj3Rf+9rXmtjma/wGxlS+aszO1RjLp6uc88qA3xKk11133ZZAHSs/2a7juu4erulPjaHaVw7qePhxH4u2c+rWfaqvhXMeXo888sgti5G/66+/vvvOd77zsYXf58svv9ydccYZ3VVXXdWdffbZ3SWXXNLarP6F2cCcmDs588EHH9ziM+Uv5W/33HNPWwTN+0LtjMXQjoBvjvUJ+q/Pw3VgGE/OWW/OOuusdqzs8FpR1xZqc3hODF966aVtw2fyfspV2Wq34qZw7vLLL2/1h7FmU+jb3/72xx5YfTo+88wz29ok31500UXtmvsM213LsJENHX5sx98x27CxTxBukxtoQ8rWO3q9cT+IIX0Y65txlL+V/wx9yadr5VM+q67rzmm/2mKPOu97jZ3v0jf8yTXnhn7uc3isTd+Luqe6HvgOOeSQLfPhz3r/jW98o83FsA1rkc3Viy++uPmvNUO96vOOhD1sGvElPmW85UP6XPN01113tT46P9mG685PzvWyRbZGJewHHnigiVDHdkcY9Mknn2zYESZMXNdZ1zyBPv744+2c9k877bTuoIMOahOjvOTvSb0mQzvuUU8Z+kMse3Kyq3jeeec1AeS6upNPI/rlHOGsvwyirgAkGBiPkwzLcjpPNxdeeGF3+OGHNweqMuFPw97mU1AR2RZooto81U6Lh5lTTz212X6h3W4+MJb0BMFC16aFPk72B8bGL/Xb7pKFj08qz7cJbuX4i/Hybw916qjLFvxSOb5nLGwlVpS9+eabu1122aXZp2ynvBjRLp9VHn5V0a77u649iYDPihF19Uu7zimj38ro03e/+90mlLXB/q4bQ/W1xqy8hGOhd97CLiYJ7x/84AcfE9niwq8+2iW2jz322O7EE09stqjEGmYDc87H5Dz+xxf5DH+Rm5URrxZefun6WJzyibEYMt8rHacL5eEaG5+uWNAfvvvQQw+1+HP99ttvb3nKtWeeeaaVFVfiiw3YxTH/Nc7JNvm9e4kHccrnXVu/fn0rL5bEmjrKWZjdh431Q+xMxtqwvuvi2071rrvu+jGRzbZ2C6+++urWrlg74YQTWoy7Vm2uddjJXE2uN+xc6418ZB1nd3lysg3nVtpXh7gPzDcfsQZO9gl8Rp/5BB9U1vya7/JF5/irHC9/81ljZhd1+KUy2iqbaINf8ldl2c81axo7Osen3dc1x+xaxxVLvruv+2hfn10TM3SSY311P+vC9773vS31q6w2iWzHHnqPPvro9mC/GhrLGKzdbGBcch4bVU503VhPOumk1sey67ANvsRek3O+LJFdycSNGdHPWjok+AnfPfbYo9ttt92aqCJKnDNBnrz9fPD973+/22uvvdok2lXwBKRNTzTa23vvvdukcQ4C3DlltOE8UbL77ru3pyS7CM7rw1e+8pXu4IMPbsaqSRVIJlUfOCPhoJ5dcDvZw8n1FENceMISEIS53TlPW4w4ZouwOXDYUeCYM5/1GhDbmefzzz+/PbDwgUoKk+2YKw9MlZB854clZD/88MMt16bNWH/Mt/MetvgKn/nWt77Vgk4S58f8/NZbb21Bycf4q91u4+ZXfIm/WjCVkwC9csFPjzvuuLaD9ZnPfKbV1W6V1zbh7RcC1/zaI5bE1A9/+MP2gCjB8v1DDz20CehjjjmmxSVbK08Qa0s5D6Of/vSnW7viQXLVhnEZn/gr/9Zvu9HasxgQXd/85jfbWMWdRFT2kiO0LS71xQ6b9vRdPA3tGVYXc2aO5FmLNcEp/55++untwcjCaLE57LDDmngjxiuPDuErk/EjVvkeIbBQnE6uL9vDQguxfhIJfrG0XvBdi6WxObbeyCOO5SbrlVi11ogDD5Biq9YbMaYMqk2/7BijDRpx9OUvf7mtDwQxwSt+xIL4F49syc6VF6xPdsyUm4w19cWaPog1cSbehg+04kl+EL/sbAfc8YYNG3aqWDPX8qJ5NMdyrXWFz/ouj9q8O+KII9ox0cdnh23sKJFdvm+e9YM2EYPDvhTm2XVrA38jPuVVPkogE8W0lTg1VuuINcG6Sih6iOPn6loD+Ig44LfOq8s/+YrzFfvytdhwnd86z67sx8f5vzWcP7untYU4Ng/8WHvXXnttyxv6YS5qvdQXa2PlEWWtnR4q2YQPg3ZcDR9mczEmLtnAuuXhzC+zcqK108OCNdY66HgyJ66IyGYci7RkYlGVRDi8ZPEnf/InzWgmS6KQBL70pS9t2cmUQCQmYqV+8jKZOk/8Ks/JDNCEKcsAJts9GYBwcN5EuhehLVGaKJNaAkfffXIO92NEfWUwjqXNEtmCkPGcZ9SygescdmfaKdhW2MbcmF/B6eGLP9gNE8ySgvkyp5KF4B/zK/bnc4INvpsbvmEBkqycWwlqIZvsj+TCt/Sd7/FfCb4eIiUbD3iSIX9yTjDyf8nUgsw/JRx+xxc///nPt4TkgU4w82MC3BgJG3GkfUmWEPrc5z7XfNB9vvrVrzaf1w9+Lobci++LCztdEqfYZHNJWDm7DF/84hfbKyOEg4SqffFXu/Pl42xPiLmf+dKW5Ky8+CqRrbwHJrZhJ/WcU9a4zd2kTcPqYc48BHv4Na82HDzkiV0+yzfkSOdcU3YsTuXK4ToBIptfEBL1cDxGiY7tZSGfqrGJB3EqTuRxsWs98V08ijvxoRzhIUcpe8cddzSxIoaIZoKYPaxB1ab4Fr/sYx1xXW6zPhEfbGcNE6vKuK/yX/jCF1qce6gWP/pR+UbMEDXqV6yJSXlTX0pkVy6SW8WvnKWuPCtn+D5pk7WKHGO++Cyb+GQzc+lhhdg0B+ZZXiOCJv3YOb403NRZCcwTHyKe+ad7iwNzqg/DPumPubTp4iGBZuJfcr21wkMk/7LWyM3818MhnxHD4poAtn7wM3YgkGkfItjaxG+JXr4lJuT0igfr0rp161o9MVBazWZN+dlnP/vZptesgeXDxuie1jgx4H76b160USJb3mAL12w2qcdGNjP1bzV82BjEo4cWfbIOG591l72sq8YtnvmceBzzJe1M5rpliWzGIIZNisRhkfZpMbcDoI5kJiEQVK5b5Bndee1KQK5LUCZaUteewdj1k3SIK8nGoAkEA7ajrR3940CcQn1Pa/7Udw+D1g+OSyhzKglPXwgRCwJnYEBlOAFH5QAcgTE5W+3oLJTcw+akxykFK5FNeEoQbMgvJLoSf8pXcA4xV+bELoQn9iGc33nBKlnB99ppmgZ2qCb7ZM4tfBZXvijJSV6exC3Mdqf8MuOcpCOhSIASjUXajhOBzTf5n7LsRFQbkz/XXaufD8WD8trk6+ymXQnaAyBxzFaSrDgQQ/rCzh5mxaUFXfyIU3GmTaJXOfPDfvonLogiSVpyKR9Xz6Ll/nYcXGeferXFvJpzfSYQxK5jdhTn5n9s9yisLuKOHw13aIhH5/mhhdZDE6HChxfKefKjckOIHfEhTn2fvF5lLGj8pz63BXXG4hTyNx8XO/K/9YLv1oOxGFDXWuKc8YpHMWBNMF4im1Dhy9YxD7PiWZuuiS+CwAMwcePPOuSB1AO0+4lt9rFmaFeusM7IgXKic+ygv/ot1vRNfXGkvrHanS5BrqyFXDnC3rFYcz/xr8xYTl2rmB+2tFazJTHEXuaXb5sz80Mb8OExDeOc8tvjh9uC1zqsIeJC7DknN1Yfhn0yr3IzoVwiWD0PirSI77VZKP/zB/NOBPtux9svLDSQzU45XVvWCb8uEequWyPUEZPKsqNfXFzThnLsqK4/9a112rMWsO8wN9Bz7E2P0VDKGLc1jr/zVXNmPRBT1jHfzZ04EXNyR8XEjoT9+IA4YmNrHJ3ivDFVDpAT9dc4JttYMZHt5p7QdciibgI87ZgYxpKUXCOyOYnFVzBIbJKQCXHdYm6i1deeBVoSVN7A7YZzNgKByNYuQWFgrhH2hDAx4b7EhfYYQ985g0QqYUnCdv0kPuKNMxDexkkw6A8H5nwcT9+UdS2CYWHYukQ2RxSUBCbnNTcWGM5r/vnDQraU9CYXZZ+CVRBCu+aIWHR9GriHfk32x7gkH4KUiHZvScPiZkfB4iu5WbAFKH+S/Pmb63zHAl9C2y5CLZ4eEvzZAeCT7m+cBL1dBIuuxOZeHjpd5+vih/0kWfbkp+6lH+wvQYohMSCGCWV+rP/Gwe+NV18JeMnQeU/pYyJbf5XV3/qlyEKhbf11TwnG/OqLHSQCzrlJe4bVxZxMimzzZd75KL+zyNvY4M8LzaF8OBlD4pEI4F+LxaZ4KsGh3LbiQXyyP/K83E9A1w4zkcG/5RTrkrhybLG0XskhRIV1SLxYk/i7tYc97MpZ4+QvbYplcWLHzbojPmqNKZFNYFinxBfbimufBBO7yg3OsUMJiqHILhFDlBDzJbKtT+ZLfKkjJuVY4xKDO1ussftQZPuUc+VImqFENt+WK8c0DPjSmI9NCz4uv1o37Ejrq3PmdHIXe4j10sYhX5GX6SdiFPxLDMn//NYYlCOcaS8Ph35JtPnBDnzXGuNPWf6uPe2XTmMzPm/tsDuu7fJ7ZZQVW/yTTxpb+S+GItu86KN7iwfrH39WRgzos/WD3/JhfTXG1dJXYmdSZItt4yuRLfbkROMY6+eKiGxO7sYMbjGXuBiXU0tOOkgg6DjHlzgkJxMvURHEkh5hVrtuJsAOgV0IItpTvYSnromxMyHxWAjUNekSqcWhJlM7yhPokpe+++ScznNexuJkkpqdc9eMlQPqX5UxFgGhjYWCNGyGP0j85skCI0AFLPuxpQTjWEBLBs6POat2/HxU/lc/t/E1i6BEYNG0kDsell0uYwuVc+5XOwT8SwIRjMYiqRirMXkA4GNVVqKSXPm7GBEXrglioljytbtg4fc6CBHOb5VnM7Hgfs7ZvRBHfLJ+KdKW+BJD/Fk/xCH/tTPAv41L4rUIETbiRj39Usbib2dcm7Xwa5vNxZ4ky9bKqaese0mSfmZ1b/Fnbt3HQsdeO9uiPy+YFwskP7G7RowSiOLOA5zFWB7kV/WgPDaXYncyfup1EfO/0Osi4pXviP/FXilZjHoQHMJn+a44Eyv6X68tyuniie/LUdYNYyNU+LMF1eaLMXmA9eDKHmKYPeQ0a4tPm0C10yUP1EMwkSwXiCGxRKgQPmJSTMgLHlKtU3aqlXOPijVroPpyQsWafCHWCAB2s07pjznRT+utHdGdMdbYTu4xz9Ybn+zD9/g2gWee5GivOzg/uYYTRpPrzbTRdq1Z5l9f3dc18zYptPmwtYX+oZHMvzjlpzZa+IhfU/iu/G7DR97lUx4a7dzzHw/RfJwotI44X33h35/4xCeajhKDpdMIXWuCe1m7xIr2fee/HjLLf42j1goYjzXQvdxTGx5E9Vdd55ShA8SbT+1qUz4Qe5Pzs6MwD/IRm4ut0p3GZ0zQfznEeX2fjLkVEdllXE/pxIEnHc5hYurpUUKod9oqYfuUPAxIcrcjQkRI8AZlEiVKiVDQEAyOTYyndrvOJoUTcRbn1dEXbRAlfoqohd55gcQwkqSEJQAFn7oSMOfkfPrpnITHoBajSoST4w8fh61r0TY/HqiITouAJCfBWIAtekTZtopsc+Y6USox8BsLknmbVpKcDJzCeQuapCZZ8VuLJL/hx3xJsjBeSVGi4r98VX1+y5/Eg7F7gue7/Ev/2YJviiF+6h4WCuX9fE/AEsn8006CJ/9q184y//TErR8WdbZmf+fYU1zon3JiU/LWd4nDfTzUirWKF+iXZFOxrL5yYkuMiC/zIubFoiTtfmJ4ITuG1cdcikN+4+GJuCRGzJk8SrgoY8HlZ9sissWmeOenCwlo59WftsiGfhqP2BMbfNd4xCvfdWzsYpBvGyPB4mdz4kBsuWY90pZ64l5eE1va5PuOxY44F0vi3IOy6/xfndookqPYudYemwXWQP1wj2Gsqc+u7q++uHU/NrVRpK52xJo43JljzbitCfJcrTeEJ9/j2+bHph0bOrZBwbbDNnaEyIb24V7mnU/I/fpg/od9MqfWgNo5Ni79prP8ysJHPNAZH98DfcRvlRNXhCD/Uc4xH6LL+Jk++EVT2+7jHBEpvzvPz92bD+ub9Yem0gbb8n3+y+blv+XDYo2eMg65xHrJT8VRrXXmxFqmDQ+qNeZJO+xI2E2M8RMbUdZn8ei8MRmLchWjNOlk3K2IyEYZmAObAOfcjADy3Wc9qflugokNC3u16dM1DNtDXdd2tak9g6861bZzvlcwcQLOwzksFgLQ9WGb2irqGscjOBi72gxLgx2Hc1J2rXPDua46kyyU9ATB8JoFWuA6v72L9SSLLVjlM75X//mHc3yukqNdNMLENXXADuXP5W9DG5RdtLW18sPvPjH0/WEfJ8tV21VGPecd6z+xIDFDcndeefWUH7Zd9dmfsIEFpPoSZhtzWL4F5+p7zXeVGdYrzPNk/IhNfoSxGK4y6q+EyIa+89Ph+HwXGzW2Ok8EExR+HbVLSDTru2vaGvr/ZJvD2FHWdyg7LK+c8lWu2rOQizPrkx1FD611re5d7fp0XhkP3MQQwb6zxxp7lX18Oh5+ZzPfq8wkyiy03qwE7gPzZv5qjsdwrdaASZ9wrO9+7agHuzpf/qbumG2K4b3LRlUP1ZbrFTtDX7ZW0kgeXPmwhxm728qri7pH9aPO2Zix1ii/2Jq7oykbFM7Vd333OWbLKrciIhuuadwE+I6anDrnuzKexj0peYryvQw8rFPfXau6joutnVMPEpKf6TyRgSCbdMbJ+pPt1rmwNNixbDn8PrTl1my7UNKbPGeB1r5AnVaSLH8cw72q75PjUY8/e5DzqocFdBg3VafaqM9qY1hma+WH36tcndePhco5ru/KDY8LSdPuHoyh2hy2Vzg3eb7aDLNPzVfh3OT3xebUtbEY2hpiVf2VFNkVB9V/n8PYKP+3M+gna5swdrKJXXFc5ar+WJt1vdpC1avvk8f13TpkJ1KcWZsI51qkJ+tXvcXO76ywBya/D23je52fhM13pMgu6n4LzaH+ula+VefKB+tBsP5dgPYmx1xl63hog2q/ztX34T3q2vDcsC7EcOkrWsuGi7KT9apuUecmz682+qPfhXOT36vMsB5WVGRvCzphhww1GSuFPnPGYlpjCCvLtiQ9CyKRbdGdRqJcjk+qqy9+GvNz4Er790oggVS8zGP/w46Dr4zF0NYQp+qvlMheKvzbL05+svYKRu0m76iFfxhrGCsTVpbVEtkFH9CHsb4tRmkZv9R7nWG1/Cca65fMjMgOYWtsa9LzbrRktdoiO4SdiXkX2SiR4ydga5zjsXJhbTKvIjvMHjMlsrUV0R4WYluSnnJENn/a3gV7yDREdhbqsDOwFkR2CWtkTdr5mHeRHS01O8yUyA5hMbZVZFus1ZsVkR3CzsBaENlh52beRXaYHSKyw9wQkR3C7BORHeadiOwwLSKyw9wQkR3C7BORHeadiOwwLSKyw9wQkR3C7BORHeadiOwwLSKyw9wQkR0myUK0smyPfSOyw1pgtUX2WJ/C/BGRHeaGiOwwRPKKyF5ZtsfGEdlhLbCaIjvrzdqhRPakL0Vkh5kjIjuE2SciO8w7hNFq72RnA2FtUCJ7co4jssPMEZEdwuwTkR3mnYjsMC0issPcEJEdwuwTkR3mnYjsMC0issNMsZg/RWSHMH2mncMjssO8E5EdpsXMiGxONXYei10LS2NHPgy5F8d65ZVXtgmL66uvvjraJtaCyGabafqztnbk3IaVxVzu6PkUc2JlLCYX44033hjtK58ci6GtMQ8ie3vjbTkxnxhfHLZ58803R310MRZbb9a6yGaz7V3T9G05/uy+y6k/b8yEyNaJTZs2bfO1sHQsiGPnF6OSu8933333Y0Hpu3M1/8Nrzm3cuLF78sknu6effrrx1FNPNep47Hx9mu8xv1oLIttiUOObRqLR1kom47Bj4R8Yu7YQQ1/yORmLw9itmK5r8sIzzzyzJVYn43QYm8PzyouvamuIe4zF0NaYB5Et3rZ1frDUOB3OT7G995xn2KB8emsoy2cWWm+Gfjs8rzzfH3tYNFdrWWQb82uvvTZ6bWvwx6XWlXsm51FdbQzPFcqLYZ9j11cL+XOp/jiJeVR/co53mMjW8RdffLG78sorWyIZtuea4HHt9ddfX/a9dkbYzNP6bbfd1hx7qTZUju0roB5//PHuueeea+drzpyrBeDll1/+WF3HTzzxREtkldjguJg8X5/uN9bPeRfZ+v/QQw91N910Uzs2L0udj0nUwzXXXNMWjGkkJfO6vYlkKejvNOy4VmGb++67r8XVUueTTeVGvm7ufBebrtWx9pxzLC4rD1TdYQyWEKkYLYZlCm1qY7JP7jMWQ1tj1kW2+bnxxhu7Rx55ZJvmh6CxhrH9YvGlrNw3zH/uI188+OCDMyc8VpLFRCDbDO3o+KWXXvpTvjrpr5Pn6/uYtljLItu46IHjjz++jX0xn5xEXb58xhlnNJtN2q1wni7gty+88EK7R5U/9dRTu2uvvba1NawjvmiMe+65p3v++ednYq2ocfAXv34sNF59XejaiopshmXIMpZPxzWp6mqDQU877bQWWMNEImEKHpNCkLg2bG9ngZ2GgVAO63M4uY4Lx2VvziEwyr7D8spU+WpTGWUtKALk9ttvb2LuiiuuaEFgl/qqq65qx66ZG2XdR33tWFAkMKLhwgsvbILbPFswnFu/fn13+eWXt3NEwHXXXdc99thjbZGfN5Gtr2yG4fGwDrvox5133tldfPHFzR5sUOWqvrqT7Y3BFjjrrLPaol9P/9WGMjWXw3bKJ2rOfTqnPtFkPlwf9qH6VP30qd6wnck+O677V3l+wifUG+vLWsBYjN33sptzZYM673sd13VzwCceeOCBlheH5V1HtV112M+iJKYkc3Ek1l1X1mIqTsWvuL377rvbg17Nq0VWzIFfimcxr82bb765LZLr1q3bEr/6d9ddd7Xysyay1X///ff/VH+GsFmN3bG+lt86V/5a16p8fV5wwQXNhu4zrFdtm4+q77xj82J9Y7+qM6xXKHvHHXc0+7quHeMyL+bR9WH5tQq7s5Vc6XvNA3zns677rjw70gl8kt9ab4giu9TWJT4sLqCedYbIk4vUmTWR7Z7GtpDI1tfyoTou+zhX9qrrQ/s5J7fIEd/73vfaWlvnUXZwzvirjTr34Ycfdqeffnq3zz77tHZdV861Kldl5fsDDjigrfniRTnsueeebd0aPhBrx3ydeeaZ3TnnnNOdffbZbW4m293R1Dj06f777299Nu6yKXuZJ2swPxrrr+vOT87zskW2Ttgx4ci1iyLJO3beTT0hEG2SPqM6b0A6BcfqemriDK4JHgJuofuuRdhpmAjYonaP2cd359mL0GVnZS1WykhAFlmLp+9s6zp7OufTMWHtPupLRJKScxZYbVsALLz33ntv+1ROsGrzlltuaeJAsJhr93322Wfbor3LLru0QFP+3HPP7TZs2NAS4W677dbaJrI9SPEDgTVPIrv6yY8lCbY1HyVCKiCNia3Z7bLLLmvJnh3ZqxYI59hfe9pyPGYH7WnbPcWNuRL8yrO5OvqhLeeG7biXGKo5V8ZcsZUHp4suuqhdM+/6oD31jMl558wjfxDLxqU/yihrjI7Vd0159zR35l1ydT9l+Kq+6EO1Me8Yc8UXG4G92MU4nWcbtmQHx+UbbHzrrbc2ocA2ZVvlzbfy7lG5URlcffXVW+aeoC6Rze4eZM0tkaZd80FgaEcZfeJ7fGn//ffvTjzxxHYfYpqgVEf83nDDDa3P5513XssLyutT+dUQ7Y7F0NYQs+pvq8hWT/nhoj2Gfmmb37KpcxUj7M+ubFHzwsbD8tqXt9iEaBjGG5StHS/30j47aZN4YC/xXrnC9aH9XJMDH3744XYv/dAvMUlwiqEqu5ZhO2MnXMSEeXDMvq45bz1zrDwb8nVzIX6+853vtHWHveVHDy3sv99++7W5UP+kk05q8+q44nLYB76wLevNNKh7le+MoZ/6xi/KHpVjxKcxu+4amyhvfK7DObpNzvjBD37QrmlDvSrvPsryb+04p4x8BHqMeOav5kc55Yf9Vke/3KfWp8pX5oEOGMar9ZWfWyPE15FHHtnWyYXW3R1FjYM/iVvjZTO2Nmb9MxceovkV25cNC+eUm5zvZYls5zQs4Z9wwgktqTMuI55yyiktQEyIp0zO7slIJ03o+eefv8Uh1JeMBIqBCSDlHHOI1Z6AHQE7GatFzzEbEWom1jnCyBMW52dPTl1i1WJrcZT4LbbXX399s6ny2rUjYy6UsYh44nesXW1JThKN+bSoqOcaHn300eYD6hLJHEwdgadtSVHSI8wPPPDA7uSTT27jsEgLJP3Za6+92v0kO34xjyLbeNmJH3vaNW4PFMSKZMR/jYXv83M/0Rk7m9U8WgDUP+qoo9pcsZn6fN2C6x7D+7E9e7rfEUcc0e6hnvupw476wdaEkra1oz6f8EAjgbGzT/d33v3tUNROpfbNC7/wMCTuiGSfyuvjJZdc0mzjgcG9a8z6qBzcT4JSV2LnJ3zBNX3TB8lrbM7nBX2HHMV2FhCJmd3Np7h0TVn25fceTM2TGGJPNiaGL7300iZknWcXcSR2xXqJuNqZq7aVgwVNW+bEd/Xkad+1Z8GQA8QGX5JX9decHXfccd0hhxzS5ltf5WILnvg1T+VTsySylTM++Uuf2GahPvE5Y+LTYlRZ47Hg81F247/i1CJq3arybMamdpXlQTlL3PB5mwuusbVjdcyFmBAj4uiYY45pa5rYZEvxSzgPY7seROVlttaWvolx53YWkc2WfN6Y5UfzIGeYH75q7swX32fnmlt12E8Ok1vU9amceXPeHIkz8zIrIts9wBf4ZIm5yT45Nla5Y4899ugOOuiglg/E9uGHH94dffTR3e67794eBA8++OC2Y+y6fOP6YYcd1upZe9jBJpe4YTNrMfHLt9lfrnbdPdhLf2g5bboHn3SOb3/3u9/tDj300Gb/8mf95O/WFDlErvAQT5x/+9vfbr+O1a9OxmUtck/1za8YNI4SskM77EiMQy6wfrODmPZdjIt/PkQPsa0+W/eGMY0VEdmcU+KRSDgxQ+mIhGaCTZYEI9lwAmKD+BAoxx57bEuynM0g1Gd8gVBiwnmL0fBJaK3CvsZeO1Im0SJnsRSMji2+EoqJZ3f2tvAKGHZkV04tGNnfgiFAPIFCfc4i2AgedQQh4cxh9AF1ThCYB/Mv+bmnvmhHnzmmRcJ8aVMgSmrmXODUfSwgFjD1Sxya73kR2RWA/LwWRjY2VmNnGyKUaOHr+kP0ClI/75sH88QWxi0uBLKy7Gxx4Ou1kLCJflg4+ICkJrjNqfkl2kAoaMc17Yov5/S5kjK7+7T4mzc+pg0CTzl91QZh5rzxSZh8qYSDOfddOf1URlvmWN+V1476+gDzbAzKsYXrkpNEPO8iQqzIS8S1YzHLRuAP5pn9zDm78nNl+Qk7iGmxZW5d4x/i0ndtiB95VMyyP7sT8driH+xnvksQusbm4lTZik/3V05/S2S7Dx/RrvkyDp/uyd+G8bsUkS3mthU/RWtP/vE3VqaoPKA8m7IJ+00ucAXbEGtiT2xZb8Qg8SEOCDjCQVt82TV+6bxxik2xY075Kt+teBP/FlI2VIaPW4zVJ3DkNffRRzYWG/qgnrFWbiE6zJE5M0dszS+IJ3V2hvUO5pC/igu+aV0zL2zg4U8+ZSfzbf7LB+RD8cFf2Zbt1VVPXuPb9Yup/Ge+tL+QyGZvPjnmf9PEvOsD/7CG6MvYesMu8ghRaxwEsHFY5z/72c82HyWWv/zlLzff+/rXv978nU0+97nPNb+0yWF9EcMEtzj2KR7sHhPL7iVW6K5vfetbTbfJ7dqtNson3cO573//+8239bH6z3f9quD++vGNb3yjtfmVr3yl+XaJbHYWD8akvjXVON3XvI7ZYkfh3mKUfWrzQSyzH3uzkxwud/BX/ZX/hm2siMhmNEmCwOBEyhFUJlByMkGcXjC4ZqIZn1DUcZNDKKojCJRzTJxJ/J7SLEY7i8g2QRKv5GDxE1TsYcJNNgeWYCQeE8pJ2V7gspGyFgtPrc4pp4yFRLvsbKHhLBYHc2Lhlug4PSzYRLY+1W6AciWyOZd7lCAska2P5kw/awE3j3YW1HVvvmD+501kswuBS4A4dk/zw18lZ0nTuCzMxuiPUCG22J69+LH5k8TYx3mJUwJiB21XomFXC4uAZ1tl1LHoC3JJSsLzab70g83Ul1iJBfNg4ZGg+ZH+iT/91Udzy178Qb/EY4kFidGf8/yGXcyfMdvtdD/9FePmmA/6810ykpRdq/f69NufnRnCcN7jmT9YuMUOPzZmc1ji2FyxtevEWIkqtjZ2KCee+BIbW3z4ke/8iK3EuvzqfuKQD/GNuv9iIls5/eK3fGMosvmNeTaHfNM815zxG3MtfvnIYiLbOffZVvRZf6wD5e8L4R782rjYR26rOmP9YRtxRUjwfw+A9QDhmu/G6Y+d5C3HcpI/39mCXQhr7VS8iS051jwo59cA9nLdeORkcWaRFk9imO1dt0niu37yB/PLB5SXi/2ZB7l5Z1jvYD7EBzv4ZEu24aNsLCb4oHLmtnxBXFhT5Cl25K81b86JBULQ/Mo/i4lsOFe+thJom9/K5fpS61Xdc7I/bGAsn//855vP2Znfe++927mvfe1rrR053OtdfIzeUo7NiGXj5Et2o+USdeXgL33pS22zha4iisW29ZmvEsbaYD/iWox5CCU02dc5ful77Yzrv3LGQ3ybE+X9UqasBwEC2niUpRm0qZ+uOycea2NozBY7CuMgstlALhD78ohrbM2O/NHmsHzIJyfbWDGRzZFLZDOmBUanJFABQVRwdG2UGHGNgLAwGRjDCwITIvlLaBxAPUG2MyWdErkWSPbjkGwiONmVnSQj5dlOkAg0NnJsURYAxLVyxJxE5Fo5CsfmSOaLELD4+04wK8uJSljrDx/Qp1roLEDuL0iGItv86af5E8ySgmCXRPmBhy4Ljj4Yx7yJbMnI8ZjIlijYl7D2x8aO2Z8YYiM2YSMLLuzCsDs7aNt8uz+7mlPnLCjmQlzxAwlMm84bt365d4lstjc/Fh1lJAWLOMFhXo2Rz5h3dZTXrqQi3vTbGIxRXJtDvqW+OTYG/mI8+u2c8SlPZPM5tlF+UmTLFWtBZPNZC5mxsiP7mhOxKh74PNs7Zid2NnZzbr4dszcx5pgNK07Np/bEv7o1T877zjcci7MS2eJSeW25h3LOywWuKa+/JbL5nfPmlwiVV8yzBdR1/iRW9X8hke2Yj2pzWzEuokpffR8rA9f0x0MiWzlmV9f4+ljuEKsWR2MXl/quvHWH7YhY/s03leGzkyJbGfNFrNVOuPsS2K6xj7bZ0ZyVyHZ/OUFbHmBKZOuPsfqujHlST/v6pX1/4nJnFtnWG2Ovc+y4mMiWY/iHPGmerDG1uSOm5Eq2L38aE9mOrY3a5OsrAV+RM82z/vJJ5+ggwnOyT/xDPNqVtqliHOUbxLH+in0iVl3Cljhkk6HItnNtDSLSS2R7MGQr65A8obx48GoIn2U/gpqv8nO/kpawtg4NRbYcg0mRrX1j0D/lfTevcp72jdH8+O6e+laxsVoYB7uWyBab1lz9Yp9VE9k6IAFycoFhgWFoicN3jiQxus7JBI5FukQFp+M4ErpyBiWxW5gNWFkL2c6SdCwCErkAIJTY3KdJl6Q5pWQhQQtOk+q6RbnsbXEoka0c+1qAHVtAiGbnzJt5rQXevbVl/gQ/+zsvECUgQW3ezKM54UzqlMgWQOZdEnTdT10Emz67v3ICat99921tGMe8iGzjZD8+K/kJMmMQkJKmhYBQMU8WXtfNobGbG0GqvAWYrSy+5pk9zIdFwYOm+WQP6Id4YEu2khz5gHZLzJWAsLtc4srCoy+Q4NWTxNybfxgjH+EL5koC1zdzZDzmTIJmV7saBLP407963UcZdY2B/xBryvMBbfMbbfFR7da9iBHXVjuhTgPzIxGzh3kwh8ZvnObNPJsP/mGREXPm0nV+Lxeyp2va8aAjkZsjbYlFbbCfhG4uiUI+wn7yrTmunCE++QLfYGN91Ia+6etQZPNj/sL37HLxDXNqjvVPDvA+pT66rzbG4hT6s62oJ56MVbtjZaCcXMbXjVdfSswu1B++yk7iRF5wD2M2T2zFtgSLP/ap2KsHIwKB3ZUxJ9phD21BrLOXPhFA/N+xvOBBwK6i/OmcOa+cYI4qt5hz92Zf8yvO2N2uuTo7y3rHrz3ssa9PtjV238WOT7mT7SovspN5cp2NXVNm1113bSJb/quHQ7nN+8fK8/0xkQ3nzM1KIufrE9/i+3zR+H1O9sd5fTYmGsi6ylf4o9c2rM1yLrGrvF8rjVX++cIXvtDi2y53PQQSwO5N9BLNta6w9xe/+MXm49ZrbbiH1zw8nLi/8uxKjFuvlBNLclDZTVzIF+wubvSRQCfqtc3fjck6YLNA3uHrfJ9wHZuTHY1xsCsbiGNjYXf9Nib2Nne0qmPzo86wDTnLuUlNsex/+GghlTBMrEnjQMSFCdYxSdIiYtFlZIuBes6ZtDonkVugJUVPPwJIwBApa2FRXgrsAgnEoifhSNLsYtIFkQRO+LA7B7D4sD/bW0wkadcs5MopL6C0CY5icSesOL/2tS1ZSfbacj91nRPc5sfCrT8WFYFYCcJiI4Hpbwk7C7gdMsFpwTPXyvnkpAJNnXkR2frovPHwY4lDQLKFZCQYBZ1yEr4kxHct4Gxh3tjZouyaBMQexK/6zilnPowdYo6dXNcWzKX5Vt55Czt7s7V4EXMWJnNM0KpjTrVjHtyzFjFiwhybe/WU40OVYNyfv/AV/eEX7u9YeX1QFnxEeT7CJnKA/knwfKjyAT/im2NzPm/wf3NmTJKreWAjtiMa5DNxIp+xH39hX2XYn63Mi/ngB2LXZ8U6X2Nv8SzOCAT3IjLUcT/xpC9807y47t4WdHXdi72rfolsfmFxq1zrWH/ELz/WL4sg/3W8kMjWrvjbVsSp9tjEjvJYmSHiUnlxbvzWFPaf7A/YQjlCQqyygXH61F+bC+yrXb7q2BrEP8WMONEG32eHYbyZC7YQv9pXz1yK7Vrf+Dpby69Vz1yas4pt9xZ7zusrkS9+zYV5UWZsbGsNduZf7ODTGmLsfNt3djQf/FCMmT/zL785x18dl2ijFcyza84TcXYetb2QyNauueGTQ59bCdyH7+qbedcXNqgHyiHGKpb9A0IbU/xRviF65Vc5l+ZSlv/QWvyaGLax4uGC/1ojCHV5wHcbMtrzQM+X7TyDr1oD9E8sqM+n+aT+uUasW8PYv9Yqn+zK/uZRm0R/vTZCe5TvyzP8XP+Mx3njH8stOxr2ZlcP22LaWORi/WNXsKEcy1bi27VhG+zk3KSmWJbIhs5J6hzZIu6YeDIRnEk9nRM4HEtZ9eqcOs45LtEl+bpm8kz65D3XMsbPHsbtu4ljNw7gHDuxS5X1yV7s6HrZV70qp27ZXn3lYK6IIM4kONhfOW05r31tONaO+pKeBbyCwzVOCY5nEZfQLBZ1zqdzFiwJURnf50Vko/pp7BZt39m4fNh19mQvscB+NV/GKVnVQ48gtcBLMtqqOLGIS34CWRLVvrbV0a7jsrl7aJ8dJS5lqh34bk6HsVX19d01fqMNY9BfZeFeyvl0XflhfXWH8Vnlh3X1UblKXvKB6461N+8Y4zAWwZ4om9dnlWdD8+I8u6HsxraO2U0536sN9dmNzxDiBObw3tooX1HXdQsqoeK768qKO1is+Y2YtBDX8Vj8Om8etVHjLPRpLIa2hphVX9wuNWbVsQ4ZJxvyqbE+Qb/4sxhxD3XYxbWhv/p0zUOzRVW7rqvvGhv7XvHmnnVcMVnzW/FXbWqf3cS3Oh5ixDYR6GFL2WpfH5WreR+OZa1TPl6f7Db8zuZiSlnH7MYnl7Le+HS+/L7mfXh/c7Ut681ycA+4n3EZi/sP+1Pop2vK8CP24Bvlz8ZSdqm12kOFVz34UsWHekP7VV4uW7jmnOPyb35YuUTbzrm3etWuBxn+DL7tvHspq02oD+XlIZsOhDshW3E2HPNqw67GUf6n786zTdmr7K7/jifrr4jIBmMxYgmUyeMysuMy7OQ5x3XNOdfqvHM7E8Nx+xzaaGinYXll6vrwfH0WVWZYTkISTDUfdb+qW8ecTrKqes4JesmsEpkEWAt4navzPp2vMuW41V4xiyIb+rqQX1cZNhn6bl2TXEpk2zGzqBPZykIZosjur2RZuzfVfrWnnGPn1SeS7Kw5x27VD8fDej7rWvW7rtX3ybJ1PPyOun8dV/nh97p/1a17OF4rDMcL34uyDYbX2WTy2vB4OGdF1S2xV+edq7YdD+tWTNexRaFibxiDw5isOK0yjsW2hV4bda9C22MxtDXErPridltitkQKvx/rzxC24HNl77LV8LtPZewEevh3j+G1uke1VdccD22NuleVGdaDX3zEtp09u2Jyn+uT7dc9dxbKfsXwnO9sUjZ1TgwstN6UD9d5n8PzJdzr3pBjd5TILupe5nzYl0n0tfynfKN8xvHQf8SRBzjvbBunHeZqo8pNtld1MbSz4ypTdX2vuo5rrYJfctiwbFttVrvOFfKQzyo7a+ivvqH67nP43bjG+r+iIjvMN+VYY9cmKWcrBDThuC3U7i2nHLvvrIrs7UWbdiDtYPv3Bn4NGHsSrgDGpJ3HUM6OMlHuODG6tjG/2xKnk2UJFLE3FpOLsdDDsHuMxdDWELPqb6vILtQntCf7sz0YQ71qVwJiJRjGNsbKhMXhg9Neb1ZDZBfuyS/0Ydin7UE8EL5ewRWv2h0rNy2G/rzUe7G9smO5ZC0QkR1WDM61rYy1U6w1kV3op2Q/zZ/K2NLCM3YthEkm43ApjLUDPjwWQ1tDzKq/vSIb0xLZEI+LjTPMFpP+uVQWamu1RDbE0EJ921b4cb3iEHY85jEiO8wFa1Fkix9tY1oCG7U7MHYthJVkrYhs48j6tnOylkR2rTFj18LKE5Ed5oa1upMdwlpirYjssPOylkR2WF0issPcEJEdwuwTkR3mnYjsMC0issPcEJEdwuwTkR3mnYjsMC0issPcEJEdwuwTkR3mnYjsMC0issPcEJEdwuwTkR3mnYjsMC2WLbI5A6Edwkoj6Y354RjTFtn+W7ljfQohfJyxBWUpTEtkj/UphG2BH66myHZva45YCvPPmHbJTnaYObYl6U1bZAuUyf6EEP402ckO885q72SHtU9Edpg5IrJDmH0issO8E5EdVpqI7DBzRGSHMPtEZId5JyI7rDQR2WHZ8I3tYawtRGSHMH3GYnApjLWFiOywGoz56FIYaysiO6w0Edlh2bzxxhvbzJtvvjnaFiKyQ5g+Ym4sFrfGWFuIyA6rwZiPbo2F1puI7LDSzITI1raEPXYtLAybrebDj3tv2rSpe+6557aJZ599tnvhhRdaghvr/1oW2dOcs9We/7A0zNFq5zex9uKLL7bYG4vJxXjttddG/cyYxmJoa+xIkb0zxcgs+NlKYnyvv/76qI8uBp/n+2Jgss2I7LDSzITI9pS5cePG0WthYSQcT+nbMjeScCVi9Yai0nH954TqnO/D/6zdZHkL5RNPPNE99dRTLZn5fPLJJ7unn366fff5zDPPtHOOfa8y+q+Naq9YyyL71VdfXXQXf6mwG/HjIWfMhmF2MN98fezaYkzG4VBAicmKS8euDWPXcV3zyU8q7sSguKyYrFidjF+I7ZdeemnUx9xjLIa2xo4S2fq8VmPEeIb+UHMsvwzLzTqT41gMZV9++eXmk7WuDP3Vd+cm15v6PuYHEdlhpVl1kW1R8LR52WWXtcVope6z1mC3u+66q3vsscfa4jpWZhK29TDjqV59C5Dkw+4SnST08MMPt6SkvHMW3gcffLCVJeiff/75j7Un6Sn/6KOPdnffffeWxfmBBx5ofVP3/vvvb8lOcvRdeSy0Q7YWRXaN84orrmj2We592OiGG27o7r333iXP/2Lo31IXu+1hpdufVcyzGLr99tvb+Mf8fSHEWuVE8fPKK6+0NggDsSTmxKR7iGux5l7K+KWo4gtEvljHPffc0+pq06d6jz/++Jb4dV78PvLII628fDHWb/cZi6GtsaNEdsXIfffdt6ZipOZz+PBjrObsuuuuW7EcthJYc/j1mH9N2sOxMfNJfsuPh+sNH7a+8Odab8x9+f3Ypk5Edlhpli2ynRfUHBVVzjmJsAJesFQ5n3UdAuC0005rZRxro9qt3RnHk/eYd4y3xlLffU7uSGF47Do73XTTTS2hmB/nXR/azfdq0zm2u+OOO1riUVb9Cy64oCUf5Yn2q666qiFxWQSvvPLK7uqrr+5uvfXWtkty/fXXt/M1J0S2hKbdQw89tLUtEV5yySXdnXfe2V1++eXdscce2wSDxHjeeee1xVv78yayy65sz6YStM/yS2XK/o6Vnbx+5plntuSv3zVn1S4cD+/heBLXP/zww+7SSy9t81L38llzXm3Wuaqn3Rqj9n1///3325x58KnyPifbc6yNGpPv2lmsPHznO+bf8bAvC41xljCe6md992kMqDGXPeu4xmi+xc3QRtpSVplqu+qrI17UKUF99tlndw899FCLdQ+vHtbEqYcsdW655ZYWpxCTBDPBUf0T42KOCD/mmGPapoZyGzZsaDGqnUMOOaTFr3jiW+vXr2/lZ0lkq4vyo4UwbjEiDxmj8s6V/cFuk3NSc+aaY2N0Toywg7XKdeWHdYftKa+e79XOYuWr3FJjRFn9uPbaa1s7yhmrOV+3bl07HpafVYzDBpt1ony/cGx94LOOlTdWeaoeWg8++OC2KSRWLrrooubD559/fnfqqae2c9YZccNW2onIDqvBskS2c55EJUtPkRYDTisoJHACcLhrKkA4vvKuWzTsxAga4sPioQ1t28HxhCtAtOGc67XLuhYwPuOvhAK2MWaf7FvnJCN17Fi57jyBJbFKKLXLpT1lCV/f2VHyZkMQzeaB/e3yWIQkH/NosVVG4rLASn633XZbu1b1LFi1M+R+2jF/RPYPf/jD7sILL2x9PPfcc1tZ7e++++6tn+b2lFNOafM+byKbXxuXsbKPvivLNnyaXxoLe+uPsZoDtlXeziJ7echgV75c46922UQZ86eOuo6H/XCsrPtZWNidAHAv/ag5rz6gbKyMmHRNO+6rX84TbGLQ/LuvxV4ftQXzLMbde3JM2tYf5dlJH9yjcoIyFsUTTzxxyxj5rL7oQ7Uxi1QMiiHfjU2f2YAtzFWN2XnHyjvnOnuyAcHMXsbtmrZdE8vVtnrsxtbmtXa/7diJK/Yy18RV2f+aa65p8yc+9Uk9D8v64Zp7acM1ttcnD8NHHnlkq3fzzTc3YeIee+yxR3vo1h/x6z7a0c/yoSHaHYuhrSFm1TfWpcasOsoSnWKOrSb7U+hXxQi7iTd2M/7lxIgHGzEiDy41RthOnjAPyta9xmJErl1KjPiuT+bZd7lfGzfeeGN7OJoXka3vbMaOw/gxbjYydmuSsSrvXIlsa8v3v//9LevSWWed1XyfL++9995NcLP3CSecEJEdVpVliWzBLLjtQnNuDi0wBIwk7YnSp4RIZCknGM4444wmvpS38yKIjjrqqCZATjrppCbiBJ+y6lgAIMGp66eheUkkCyHBSKoSsQXAd7az++QnP0gK7CaR2KmSTCzWbCYxEdns6JwFkd3ZzQ61BbZ2lQko7Vm01ZVYwO6SmPtYDNxHv9RRX1mLAB8gyCUt9/XdwlFJ0gKk/yeffHKbU3Us1hKhhck5c+s8n5g3kW2cbGsM5aNsqp9sb9zGZS7Z4/TTT2/lnL/44oub3zpnEbGzwqfBNtolBDx8sKsFRMwob87Yp2zE5y0Y2tX+4Ycf3hYTi5J21SGaHPtuV8uizafUN7/ihzg3/+6vH3zIrw0WJz4ipsWzPok7/mB87umcMWnHPfSfcKm4Vt4YtMsHKieo84Mf/KDZi78oW20RTWN+MAvwBz4v/gg83/m1MRA1/IBfszn7ihu+bV7YV1l1zLG4FG/sS5SJX3GrbfOhrPZ8aodIdH9l2U3e44varZ/Y1TdnHorlaX1Rlk2V44/8RozrF/8xN+aFv4lb8yTP8Kvjjz++tcF3+N9Ki2w7sHVukjovruVIvsYXjYm9JvuDyRg54ogjWh40jooR9nY8jBG2rZhYKEb8ArDPPvs0MWcOKx7MNRsNY0R57UC/lan1S/4TI8qzvfuLET4iRsxLxYgykzFS6y5fcd49tX3ccce1fstLk3aZRfg2O3gIEj/GI0bY3Pj4NNt7mBADtTapI8/xYbbmr3KmefELDR+Wv6xXbBuRHVaTZYlszilh2BmR+OpJmrNLaJKLoJfUBIzER1jZRSHgJBJBYpF2TvBI9hKGwNCu9iVj5ep1BoEnQMf6NC+wncTLLsZhgTZ+ScQCINFYZCVci50kY/yO7TQ5Zm9JiZ3VV9557UjabOWcJOwcO6sjWUnU7Gq+JB/3tLC7Zi61RxCYB/OvnoWokqExVFnzSDBYsCwa6pl3YsECYa7NmcRobudVZFuwzYG+W/wkcYKb7YjLc845p9mb+PUAI+ETr8ZpwTTfPtlSny0ABJgy5ljCNx8WaPMnJti7+kTksasyFleLqv64D38hJrQlhvSVLxFRxIT6+uZBwOKkz8ZQYsKcmT/3qp0xfbJYGe9hhx3W2jOf+m1M5pRP8C9+yAfYwzk2MEZjNR4LqX5oX/9rDPzBGGZVGOivuWRfdjJG/a2YMS5jZC+2UtacGZ/rxsjubOshiw+IYX4vJsWXsmxlDsyXcmKMvd3fvJsLdtUnsamMNsSs9sSaOC3xpZy40/6YyCbE5VTzpm9yttj13Vj5xUqKbONiJ+JZvxfDvcquxsEemOwPKkbERMWIeGBjdmP/OidG5C+2E5fqLxYj2vRd380XW3vIYTO25fPmTBlxUDEiN9ROK5u6l3tUjJg//RvGiJipMSivvxUjte66r/FYV9lFbIrFWY2lSephgQ/yS/7Hr9nLWmGMfNiaxv/AvuJGzBm/Oua1fJjtxYQcZV7Nn7bNDxtN+nFEdlhpli2yJX5PkcpJHJxcsAsCfxYkCUPQCBhCiAAnIiRpyUeicE5yscALELtvrrmHBLvvvvu2YwnF/dx/rE/zgrEalyQtsUsMkgB7Ed7GSMSxG3HMvrXQ1iKjHDu65rvy2vRde+zuKd89lHfdNfeGBUZyd18L2FBkW6gtthKU+Tef7iXJuVY7C0ORTWQQehYYi4sdNv5gDPrgvDmcR5HNRsZk/M6ZH4sjkcg+FgfX+S1fJh48XJoDf+xMQFkMzIkdPHUtBMQ5+2uHALBjpn3fLfT6xE76YdFgY38WYW2KF7s32hEfFmuLrT4QSMSUhcl8anf//fdvPme+xKw/sUnksSEfs3hp06KvrHnTPwuicv6MyRg9DLgHMQD9c3/2NNd8gEjQP20oy07++JJFUl8n7T5L8N968DBXbFK2EDdiS4wYs+/GRESIO2WJWmPk9/yGv4gZdcyJuC1Ra67ZpV4B007FvmuTIrsecNhWH80ln1FHX8QT/3VvfRGHHu7MLcwjgWLOzJ35cV4/V0pk+zRmbcsDNg4mcd51PmRc7FFlPfRO9mcYI+VfYkQe4ssVI8a3tRg54IADtsSI/OuvcqL+a1+MiFE+r6y4NwfmVDl/bGvubRgp5z7alEvdhx18t2aKEee0IY7Ntz/z7d4VI+ZT3Mot/FJdf9YOscZfJm0zi+gnu1mThjFizeHT7O5c5T9Mimz+al7Z1pw6Jyead/mYH0dkh9VkKiJbshEckqGA5+ASvD8OX4uxgNGWRCLJc3CJSaAIkhJ+RIPEIxm5h6Cy6yBYCCoLzGRf5g32NH42kSglWDaxaFpIJGmJlN2IMvZVlq18Z5d62ndcYpzdS8Sah1r8ldeO7xaisrW5cT8LmHvqGxGhTxZZbfEB7UqEFl0JX/+1MxTZ5tKCZfHyfrak7ydQ/dYfOzcwTsfuu5BfzZrI1lc+Kslb4I3R4uAcn2Y/C6h4cK3mh630i50t9q4ZP5GtrvgQP+ymDt/XLiFhXB5m9IGd9M2iYafHn1hTn6hg/xIm2rfAEHjmUh0LMrR59NFHN7+wIPnUPws53EMf+J42tUPgECfas/jx0RoT/7TrZ9zi0s6bumKXX5aAsABqw3wZtwdrf0QqUajspN1nBWKAL1dMmGv95vfGXSLbfPMFceb6UGSr53sJCA9XYDPCSFwpQ3i6J7/ha+ajRDZh57t54i/KubecIMbYUA7Qjnrs6t7qlMh2f/Orj+Z3zz333LILWPErZv07CuNZCZENfqCP+sVnxNQYfJr/ge/Weblzsj/DGCn/4nviTmyKlYoRduLbbLZQjLBRPRTzd/nRvFSMaIP/82f9s66ZYzmWr6hTayEhqJ0ag7xaMcKH3LdiRL3hGLRhnitG5IkS2ead//gzh+bOfE/aZhbRz6HIZreKF+fYyPiM19xiKLLZmz3Zyqtu8qJcym/lQA821htxGpEdVotli2wJXmKQACyonFzS4PiCxTUCUtBI+tqyKyZBcXAJyuJR/7JdUEk+kpadPolcUpIQtVFPpWP9mTckGYnRAmAxk1TYyKLGjmxkzBKGeWAfC6ykIblYrNmc7X2v+s4pK/mqK8m7VwlkdrdQSFjK1K6YhcFcWPwl/KprcXBfi+FwER+KbHUkPSJB3V133bUJE4ucNtzDAiAZam8eRbZ5Mjf8kd+WmGVrNmFLPu+aMZgTCzNB7ZrFniAmTi2SdhSV5+fmRmyYH3ZkU8Jt+FOpBchiS6iznwdPseUcf6nFhH3txIlD82Yx1g99cO3AAw9sn9rRD3bjZ/qtvt05vmRx18eKRfc3Tn00JgLE/bXrPuqWH9duvj7om/sQGnxOGxXjbOoae03afVYQO2xr7syh+WdTuYjIYg++UCKBCHedHcSDmBEDJSCMnxAgctlMjmQ3ZXy6n1hUlj86NsdEFx8RawSjWJUvCUd94C/aFv/6bc5LqA9FNpvrE7HiNSC5unZR9dd9dtlllzY2/VkJkY2lxLgyxi9/6AfbOmbLyf7AeTlwGCPEl3NjMcJW7CQmfcpXkzFibsWIeJ6MEfXYky9b19zfnLhfxYh8yLbmhv2J+mGMyB/KObe1GKk8oKzr5rHyiPu7zyzH0hDzaHzixie7GZvvZSv2ZQ/ljd13fmsuzA1/EEfeZefD1hi5zLrEHt6h58PmLCI7rAbLEtmSdy0aHFVQCBjXLAqSgx0dxxK3ZKOcYJLsOLiFRT0JThIscS5IXFNXMEoyrkFbzlU/5hX2YwcJmYAl5NiSDWuBs5BKKsYrSQwXdQKG7dhUolbOQqs95Yhc5ywyFkT3YGeLlfYsXMq5r2NtmTd9kLwIPNcJKEldAiQOtKd8iWz19EWyMx7H6jhHlChvYXHMHyRRZeZFZOsj27Erm7ELOxE37E5oWzDNl0WAQNKOa8YvftiGDX1aCNTxvdpiRzZld3FA0LlfPRCxtevGaiEFQSBW9MmCK94sMM55N9s5ooAPsL/vFnNz4NhCZfGx0DuuB1lz7rsFzny7Jhbdv+LYmJQ1l65b0PTZQ6P7VU7QF/dhP33mf/pb4kS5svGk3WeFip0SvsbFDuaNrSpGzbeyIH7EKUHM1ytnlYhlM/XZkB+YV3HCD8QZEc2W6ph/sUz0uaZsCTnzpz/yo/uZLz6lP475j/7IHfoB86Et/qr/jtUfxq95Mh7tr5TIXiqVC9iB77Ch+VioT2w4jBHjUY8o46NsVDHinLhgC4zFCFsOY0T9ihEPU76ra07Ml3kcxoh7QdvqVK4exohy5sgDF9vXg5oYsR4Ya/mWOuZluNZaFz3s8puxHDaL6CebsofPWlfqu4dZNjKm8mP51djV4a/szn7mS35VdtgeWyrPByKyw2qwLJFdTioYht8Fg08BIRk6lvihnGvKDr+7JrHAvYbtOoZEqU3nF+rPvDE5TomAeGOPskvZynVl2cHn8Nrwu/rs7rjacF5Sk4RqwXdNO1Wv6lYyqvs55ztRTGiYA3PqnAW/RLNk57OoxWXyfF2bF5FdsOnYd/c3J2zClnWN3dmv7FhzZNyEgO+u1Vypow32d9352p2p3eKaW/esuas65sU9PGgRGPpUcwfH9fCk3nDu67ryrru/Nl2vsjUmDMfk/uq5f9Wp8vVdeeN2f+WNofrrmrKzTtlLf31WHPoOY1GuxsMmxlw2c67KlT3qep33yQeJMA82Zbu6T7XPzupO3k85sU2gl2hxnb0Xisn6PjxXxzBPdY8h5nEshlaKygk1nsn+FPrFNkuJETaDNrHUGHGuYmRYVjnHUL7qV1331/dh+fqujH5XjFR/fScUPTCgfpGqsao77Ivz84Kxl/2q7/WdPdhq6OfssdB6M/TZyXM+taWNyftHZIeVZNki23mBPvndp8VieK3acG7ye5UfipyqC2XqetVdC9TY69j3ssmQyfKT14bHY21U2xK4naA6V59F1a1j1+ucJG7nYHjNufoJtj4nvw+p80REJdJqr5hVkT20S33X/4X81rUaX32H60M/HrZbx64TSH6xqN1lu+IWHOddV27YhnN2OtXxeodyqHZdH9Yb1q/rdW74vcoqU8eT36vtOjcsX999Dr9XecfzgD5Xf2tcPodU2bo+LDO85nN4fXjep8VfjJT4KqqNqlvHrg3vZSePr9Sx9pwjNiZjc2vxWyK07lW431gMrSTiHfx8sj9D9G3ow8Nz6vqlwa8vcs2sx4j+ydlyAOykO65+Vzmfda95ouwx7Ht9H9rDOb445qOTPj08z+etW2PrTUR2WGmWLbLDfGEeK2ltD2N1LeZ2abaFxXaiZlVkrwb6wx4lBrYWh8pbUAjzxOx8s9w4nZx/MTcWi4tRu7bDdgr3GIuhHcHWRPZiiBEPMMTqvMQIW1cewHJ8Y57hi9NcbyKyw0oTkR1mjm1JemtdZG8vCwmjEKbFvIpsiI/ESIjIDitNRHaYOSKyl0/iNaw08yyykRgJEdlhpYnIDjNHRHYIs8+8i+wQIrLDShORHWaOiOwQZp+I7DDvRGSHlSYiO8wcEdkhzD4R2WHeicgOK01Edpg5IrJDmH0issO8E5EdVpqI7DBzrKbIrv9MXghhcTyQjsXQjiAiO0yDiOyw0ixZZNu1GEu0IUwbSW/MD8eYtsjm6/4XyiGErTMWQzsCInssd4SwLVg3IrLDSpKd7DBzrOZOdghh9slOdpgG2ckOK01Edpg5IrJDCIsRkR2mQUR2WGkissPMEZEdQliMiOwwDSKyw0oTkR2WjUS1rYy1U0RkhxAWIyJ752VsPdkaY+3AtYjssJJMRWS75l+ab02Iux6xPlssZ07Ue+ONN7qXX355m3nllVdG20REdghhMbYmsv1D/aX85zizJu1YZm29icgOK82yRbbzHJXQEQCLBZByb7755ui1aSPJjp0fUv/FlLFrOwvLmRO2k7yefPLJ7umnn+6eeeaZ7qmnnmo4HjI8X983bdo0av+I7BDCYiwmsuUUuUVukt/GyhRy37TXJPef5rqyltap5a43cv1C6019jq03PsfWG/2JyA4rybJFtt2CDRs2dKecckpzfv+d4bFyzj/++OPd+vXrlySAl4PAee2117aaYJXZ2oNBocxa+x+VGI/kc//994/OydaSu2t2CZ544onGY489tiWpmWv+4NO1SnrKOA/2H2s/IjuEsBgLiWw5i4i75JJLuvPOO6979dVXF1xvrEm33XZb98ADDyy4bm0r8hkx9/rrry+aO7cFeXLaDwKrgfWGML7vvvu2e7156aWX2tphTbG21Loytt44tt5UmbE5icgOK82yRLagkFBOP/307u67727JQLJClffpWDv33ntvS3z++6pDwaodZcYCT33nlR/W8X3sPpLvxo0bu+uuu671zbmqW2V81ybBLyDr3LC94T191xYBWe04p7zP6tM8YQzm4eGHH+5uuummLeOsT0hoEpPvyte1YRtENruY2zPPPLMltRdeeKHZ37kbbrihW7duXff888+3BHjVVVd1jz76aKsTkR1C2B4WEtlyhzxz6qmnNmFFRFV+rzJymHPy36WXXtrdeuutLY9UbpOTXB+uB0MqFw6v17F+PfTQQ028O1fnoX1M1q3+OF/38N1YlJFD5c9he8O6da76P4voL3vL/cajz9V313xfynqjjLXjrrvuauuN9fvZZ5/trr322vawZH25/PLLm72sRVdccUXzA3UissNqsCyRLQgktGOPPbYJK85K4D733HPtyVuAcGIOb0fBE+wFF1yw5T2patPPegJlTHRph8DVPjHlujYFm/vYia5AVMZ57dld157rzqk77Iu+33nnne3JWr9dd63u657qQQJ78MEHW1A7dj/X9XmxnZJZhQ3ZRd/tYt9yyy3NHuxlfMam3PXXX98SV9VjI3VqjnyaR3a4/fbbu+9973vd1Vdf3XzgnHPOaXNw4YUXdrvuumtLrnzFLx4WoYjsEML2spDIlqttGpxxxhntWH6R12vtqNxt7fBJlClfuc11udFagmpjeA9rUl23pqhTa5g25TkbDPrivHvJk7Ue1VqjHW27r7rKVh9rHXVNbq11SDvquq+y2quyvk/2dRaofhqLddTmlvXGsfG4ptyNN97Y1htjczy23rADW3kw+ta3vtXacu7ss89uwvuss87q9tprrzYH1pwTTjghIjusKssS2YLeEyQR5YmRs1900UVtF4Fwc93nSSed1K7fc889TZDbzVaG40so2nDsJz4B55z2Of8jjzzSnX/++d25557bnXbaaVtEsvucfPLJLciUu+OOO9p9iDpB6GmZgFbO/SRdotGuu7YkQ8lVHwS6Mtq3I28cdl89ELiHJ+LLLrtsyzglyyuvvLJdU05yrD7POuZRcjcvdpuNy3f9l6SIZAmM7djs4osvbglcwrrmmmuaXdlHeW2VyGb/Qw45pM2vOTJnRDZ77bPPPm3HSLIzzxHZIYTlMCay5STrhxyzxx57tPXGxo6c76G/xKlcdOKJJ7bdZmuPdYNIk7PkRrlJee3YhLCO1T2IQ/nOemHDQPvyjzVFeRs3fh0kjInfKicvKkvUWzPcU56V6+Rfa4+ycuKLL77Y+lP3Jz7lWf1STnvaN175utqzvs3aOiS/s7mxWj/sMt98883tHPvrv3XHAwuBbL223hDJyhuTa+yurRLZ1pYDDjig2Uh582UNoiH233//tu7Y5TbPEdlhNVn2TjZHPv7445vzCwhB4mmVc0sqEoKnU4nD0/2hhx7agkSiEwgcnIgl4iQK353TvkQqcNQRSJKJwNMX4psgFmQCiOCVVJWDJKWMutomvo8++uh2b3X0kYAk+AR6PQRoR78Jxgp0gSt5eiqWBI3DuNyHECc8F9pZmTUsGMbF/hI3oS2Jm0vCmn08QNRPbezkIcI5cy1BQnkJXRvqSXoWGvPuOj9wzn3MG9uxL+EekR1CWA5j+VYukd9svBBdxBmBLZ/L9QSeHESoel9X3rDJYD2wfpWotYljzbCeaacEnnvIeeq57j5ym3ynTblTrpT3rBt13b2IbDnvyCOPbKK61kYPBUSgnCw36p9cq7/a0y9rmTIeAuRr91bXmmrtdS/n5Fh9099J26wW5kPfrQPGYq1kV/a0brhmnfEA5JNW8HDiYYRN2JYdaw5KZNsgMzf1sGIdLpHN5scdd9wWG0dkh9Vk2SK7koDkI0kcddRRzckJWoHl6dy7WJyY0ytLDBGqhJh2BQwRfOCBB7YkVwm0RLYA8kfoalOwEMaCTNKS1CRTAe1e+uSaHQXntSMQ3cOfxGonQNIV1IShBKWvxxxzTLunfhq3QJfc9Eub+i4ZSAL+JEXicpiIZxkJxdglrg8//LAJXt/13RgtAOxAZEvoHiQkQPZwzdglSuMdimz2Ne8Eu8VKG+bFHGvfMTtpJyI7hLAcFtrUcF5Olp+JsX333betH/K7/E+EEXlyhfxuDbD++PNdzpLvfCfQiFh5rvKUvCffuS7PWTtK9Mp9RJv8KnfKl3KizR5ro3WJGJcziWtrk+92colqG0LaUMa6I7e5p9xZG1eEtfPWIptMcioRKWdqT9/0cWiT1cSabHxszOZs4btfDJy3Nlhf2ZzN6sHCq5kEtvXGfJkDlMhmJ/NpLar1xrrtnLWIvdmeTSKyw2qybJFtt0BACBrJQVB4cifOJBmiSuLTDpHN8bVHZCtLOCujDmHufCVQnwKHsBYEglJy86SvLlHoidV9BNWkyCbmJCFBpIzEK9CJbO1qS5/qpzY7tfpNnKvn/sSmPkvcfs4qkW33wJ/z+j9PItvPdOxBZBurhcU4jUmyYx/J0DF7SGqSlwTuuN4dxFBks5myfg046KCD2twS2ZKquTr44IPbYqftiOwQwvZSa8Qkzlsn5GhC1SaMHCe/2SGtXx7lCmuFcvKfP+sK8Ub0yZHyFpFduQ5EmXWAOJTz7FC7rxwo/1lT6jUIa6NNG+UJYiLPWilfyX3KE+SEoPWPWCQ0raPWIuPUtnJEtnXK2ibnWXPkV2uTe+ubtn23Dg5tsproi36yl357ILH2WHfZ2npRu/bWG5/WoBqX9abyuzEORbZ58t0cHHbYYW0tVs98Wt89tJg/a01Edlgtli2yBYTk4FiSIqq87ywwJDkiWMLwE5zk54lTewJCQvJOHAHnuqBwfiiyJSFtCgKBYyeCgC5hKLiINuJNMnVfgSmxSUwSjyAS5O4nuWpDIvRJiPvU9+q39tR3f0lBktO2nQSBKmES9ZK2vkkOCyX9WUPSMz7jleglKzsG7G7xMT7zYdwePOz0E9WEt6RnnoybPwx3suuBShLUzje/+c0239qycLCrRaL+UUpEdghhe1ko3zpP1BFucpV1QS6Tw+Q2eYqotSMsj8lr8p8/gps4lqfsflozbPzUTrZPawRRp01rk19uCT3ty6EEsnq1k279kevsXLu/tVLOlPusY9YOa4l29VU+tqmkL8pBXtUfopKw166NDHm3rumfe7vXrIls+d7aaz7Y2hjNg/Vc7jYua7b1hviu9abWiOGmTolsawz7mUNtf/e732329xDF/ubXPO29996t7YjssFpM5XURCc0xx5ZU/HQmSdjdJrAkD0nHbqakYgeBuBUoAkZ54lvCqJ/JyvHV0YY++G53QSASvJ5aBVUFr/sQzNokIiu4BTrBp67xCGZt1e61BwUJSj/0SdLSf33wXVvuoYwEKPC1qzwBzgaz9BPdYpjH+kefHnDAnpK5OZIAnZOYzJFk5zuxzSau2XUx3hLZEhj71sLC7uZH0jN3HojYyIONxSEiO4SwHBYS2XKHXCXvWGeIUqKZsJbPiF2izlpRv+jZNJE75MTabJDblZPv5Trtwn1d16a1R07066t1j4DWpnzqvvKknXQi2joh51k3SvD7rowNHYLR+mddqvUI+iyvWluV1ZYcSkgab+VnedTap+4srUX6RQfor7XfvLCXBwTrKptbh+VwG1ns7ZoNslpvbKYZk7asI+zoAYdd/FpQm2zsrn3iXTltm0ftRWSH1WJZIrsCSNJwXKJLUHB+x5JavYbByWsXlNCr7/Wk6ZyAEXQg+Ii2Cg6fhJnAIH4lFMfurR+SkIByT23XZ9UllPXJp3vVp3OSmH4LzmE93+tJWhn99N19iUXjVX9ol1mn+s9+xskGzhmLMbrGnjCPbMfmvqtT5auO+QX7mRc2stNT50pUu2Z+zRPcRxuT/YvIDiEsxkIiWz6pdUZelrfkHrlIviHWXJOX5C7nan2p9cCx8q77TngTewQcEa2+XCZXuq5e5TQ505qhXb9yWseUJZitZ67rE2rd1I4ylYv1W66VN7XtvHrOWyv1zT30WRuuaae+j+XU1US/2Unf9dEYnTdu661r7KHvxs12dd1647oxQXl2nlxvrCt1zqfzyjnvO6qdYd/cNyI7rCTLEtlwfvjkXE/9dc71Ova9BOnwu51mSJyCxBO+p1wIKvWHdYZtDttzTjvDcnXd5/D7sIxzw34P6w2/u6b9aqPKO5439L/sN7TB8BwcD7/XsfI+JU3JrJLd8Pvws857CPKJsaQHdo3IDiEsxEIiG3JK5Wzf5Ww5pXKNHOZYmWH+q+8+XVdPWa+f2DG2LtkdJXDd37VqQ/m6R5234+xXPELZTjeBru/VT2WqP3WvrfVxcizDa8P6s4Z+ll2G/a1zjp2vMdT3Oq7rcv3YelPryth647vztTlUfUJEdlhpli2yp00Fl8AbBmSYPcyNBceDkF2HbcEukQQ3Nr/bkvQiskPY+VhMZE+bEoi1Lo2VGSKnEcNeofMKiVdV6jXDpdQP4yxnvak1YpKI7LDSzJzIDvOHRLU9jLWFiOwQwmLsSJG9PVgv5TivP9QrjxHY02NyLdkaY23AtYjssJJEZIeZIyI7hLAYsy6yUTvaiMCeTSKyw0oTkR1mjojsEMJizIPIDrNPRHZYaSKyw8wRkR1CWIyI7DANIrLDShORHWaOiOwQwmJEZIdpEJEdVpqI7DBzRGSHEBYjIjtMg4jssNJEZIeZIyI7hLAYEdlhGkRkh5VmySLbv44mtENYaSS9MT8cIyI7hJ0Pa1L9lztCWA7+9/tjPhbCNMhOdpg5spMdQgghhHknIjvMHBHZIYQQQph3IrLDzBGRHUIIIYR5JyI7LBu+sT2MtYWI7BBCCCHMOztEZC+n7lpnpW2zI2z/xhtvdJs2bdom1BlrCxHZIYQQQph3ZmonO2J8YZZrG/WrDZ/+azHDa++8887HzhXOuVZ1J+u9/vrr3bPPPts988wzS+bpp5/unnvuue7NN9/c0u6QiOwQQgghzDsrKrLVee2117pbbrmlibHF2vDfqyS6xq6tRYjVF154oXv44YdHxe0k22qbEsD3339/2zVmXzvIzvvuWpVzTKiOzdHGjRvbNWWGbVRd15544onuqaeeamLb55NPPtmEtO8+CWvnHPvuUx2+MXk/RGSHEEIIYd6ZisgmElFl6th/g5IAOuWUU7pXXnmlHdc15ZQHUWVn89Zbb91yblhurWF8/mcKjz76aHf99ddv2Sk2Xp/Dcs4R2Pfee28TvFVmksk62mTzK6+8sonshx56qN3P+bvuuqu77rrrWruO77vvvlZu/fr1TfiqD3OinGsPPPBAu3bbbbdtEeN4+eWXm4B+5JFHujvuuGOLkCbu3c/nPffc0wQ4YW0cPtWJyA4hhBDCWmXZItt5Iu7VV1/dsttKhDkuoXf66ae3T2WdV37Ynnp2PO14l4gkwJRzXOXWAjVuu8KE6Y033tgePpwb7i6DXer9ZeK0bOh82dDn0J71zjO7KX/NNdds+Xz++ee7l156qbv00ku7iy++uPXBfFx22WVN9OoLwV0PQyWeiWJ1iPwbbrihe+yxx7aUIbIJaAJ7n332aYKa6F23bl13++23t/sceuihTbCrd+aZZ7bde/MdkR1CCCGEtcqyRDYRTbRddNFFTTwRaATe5Zdf3oT13Xff3UTcGWec0QSV3dSzzjqrCTDn7XReddVVrT4RaZeUeLvzzjtbfQKNgForQpsNYazE6tVXX912j43ZuWuvvbaJVGUIWtfsJBOkdpKJZTa246/+gw8+2B5MfFd+WIdAZmM75USye+mDc4Sz3WnHyhHg/q9XJfqH9jbHRD2R7f52pm+++eZRkb3XXnt15513Xit3zjnntH5ecskl3e67794Et3udfPLJzQ8iskMIIYSwllmWyPbKA1FGEA93JwnBDRs2tPN2MAlr4o7IItLOPffcJqSJNbuc9UrB+eef37344ovdSSed1F5pILKJcIJu7P7zBsFKkBKehC9RzX52mAndxx9/vIlfr1sQpa4p591tZX2qy3bsQ8h6UCGqPdB4wLFbTLA7R3zW7vRNN93U7s+WHow8CLGpeXONyHb/EuNlb4JXf8yDY3OoDIFdItt1D0innXZad+KJJ7Y2L7jgguYD7nPqqadu6asyEdkhhBBCWOssS2QTQ8QxYUUoK+OVB+KZQD7iiCOaKCOyCaoSlscee2z7tOtqF9sfAXbhhRc2cUmQffjhh60ugWYndez+8waBy152nglCYpStnLO775MNCGai1gMK2xs/exHjRDhRSdwS3ObAjrZ26rUSdmV/YprIJsjrVwJCm1gfimzlS2SXmHaNiPZKif7aSVfGQ4Iyzg9Ftl1rY9CuXW/jILL1g+DnA9rxi0dEdgghhBDWOssS2XWOKPSPG+2IEnXEltcYjjrqqCbc7FyX2CbG7GbaDVWGAPNH7BHcxKJdUIKJyNSuHdqx+88bRG7t4BOHbMMGHiyuuOKKtgvtYYMI9p40AevXgqHI9um1EGXsfmuTaGVXr2z4JLQnRTbBOymy9UkfzAEBXbviyhR2wYlw9id+FxPZXhXxyokHI/NmXOaUXxinhzGvDpnriOwQQgghrGWWLbIJHCKQwCOsCCyizmsfhx9++BaRTVyecMIJTZh5LYSoJDYJRbvWhKLzhF4Ja7uvdrXVWSsie/g+NBFqd5foZAdjtBvNnoSs3WPliGrX67US7zwTyh5UtGknm5CtV01gJ9kceCfbrwzEdglnde02E8rmz1x4nYe9zZ323YsQVk575kNdDwKEvjkZimwi+uyzz2739ICw2267tbb0Qx/c0y8YBx98cLNBRHYIIYQQ1jLLEtkEnl1TQthrAHY87Zh6p9puth1rYorQsgNqJ9tuJyFOlClL/BFHxLVdT+0Sdtqr93fdZ/Le8whRSqzaLSY8CWnClrAmXJ1nQ4LXwwnxyz5+BfBAQqg6JrqJWQK9hLuHHL8oEN7Oa89OtvbMgXu5j/LqEuuO9UkfCHTntK0dD0XmyNxqT38Jatfq1ZOhyHbOLxDEOdG/7777tjbMpfqEuz4ccMABbWwR2SGEEEJYyyx7J7uEF7Htfex6L5hoJuac89qH8sSYsgQ3MUccEYJ2SAku5XwvoaeNyXvOO4SpcRsbQWqsdc4usf/OtJ1sZdnLOWXYmW3Zy/X6bg7Yjoitf/jIvtpzrF69bkLcEsfqmpt65UN99Yh49ifkCXd1vUfvmk/HhLg+aqfm30OA8dgxJ55hF9s5gttOfY3F7r3yiMgOIYQQwlplWSIbRJr3hqEMfCfCCDbHPpV1zjXH6hXE3rBctUlsDe+1VjC+so/vk+eqnO8lZl2vT9fGvvsctlvnHRPJqPPD+wzrOSawCXv2dx6+E8WENNGuDghc7db/hKYENKHvXIlu5xw7X2U8gGmj+lFEZIcQQghh3lm2yA7zwbbMXwnoha4NvxPKhDOBvVSIbrv4JdaH7SMiO4QQQgjzTkR2WDZeP9kWvMZSr8SMEZEdQgghhHknIjssG76xPYy1hYjsEEIIIcw7Edlh5ojIDiGEEMK8E5EdZo6I7BBCCCHMOxHZYeaIyA4hhBDCvBORHWaOiOwQQgghzDsR2WHmiMgOIYQQwryzZJFd/xOTEFYaInvMD8eIyA4hhBDCLJKd7DBzZCc7hBBCCPNORHaYOSKyQwghhDDvRGSHmSMiO4QQQgjzTkR2mDkiskMIIYQw70Rkh2Xz1ltvbRdjbSEiO4QQQgjzzlREtmv1Xx8Zu164HrE+e2zvnKj3xhtvdC+99FL34osvLpkXXnihe/nllxcU2hHZIYQQQph3li2y6/yrr77avfnmm3/q+pCt7WDOAx4mxs7PK8uZE3NP4D755JPdU0891T3zzDPt0/HTTz/dvvtElanz2LRp06hfRWSHEEIIYd5Ztsh+5513uttvv707/fTTm5B69913R8s57/qtt966Q4TqUnbWC2MYOz8JMfr666+PXptHjJswfvDBB0fnZGs2dM2O9BNPPNF45JFHtojqxx57rJ3ziRLajz76aPvEa6+9FpEdQgghhDXJskQ2EWY38rTTTmtC2242MU28VXmfjrVzzz33dOeee2733nvvfUzYasfxmNAbuz557B7Dc/AKw8aNG9u5uo7qT50nnJ999tn2fdiO73V/x4Sf9m644YYmtKsNVLmqi2H9WUT/zMPDDz/c3XTTTVv6XDYC8Wp+nVPHZ32vNohsQv3uu+/uTjrppCa0vRJy1VVXtXPXXnttd9ZZZ7VXRIjtSy+9dIsYj8gOIYQQwlplWSKbMPOz//HHH9/EFnFEONX7tiXIiCDv7t53333dBRdc0MQ4wVptqkMUj70+oA2vobiunmPlHGuzrjvnvs7p1yWXXNJ2zbWhL+5Rr7TozyuvvNLqPvfcc1tEoHLKaFs5fYG+Kq/eLbfcsqWf7ueadtRVp8oOxzBr6HvZ7IEHHmhjYjPH+s+GyhDfRHjZgW1q7NUOG3hIueOOO7rddtutu+KKK1ob55xzTrdhw4bu4osvbucfeuih7vHHH+9OOeWU9j0iO4QQQghrme0W2Y7tWtup3HXXXbsrr7yyiUs7lbWzTSz5PPnkk9t1O9kEOaF9xhlnNHFGoF533XWtDoFW4rbu4fjqq69uu6Q333xzE3nuQaw5r757ENVeWXEfwnnfffftDj/88Cbsb7zxxu78889vn8Sd3XT3J/rWr1/f7bLLLt2FF17YdmDVP/XUU9uOtfEpc+aZZ7Y6dmAJT4LaWPTh7LPPbvcz9ssuu6y1o76yC706s5qUTW+77bbu+uuvbzavV3jsPF9zzTXNnuaGjdj1+eefb69+mGvjJ2qV1xaRbSdbnWOPPbY78cQT2zF7E9naP+KII5rY9ooI20RkhxBCCGGts+ydbO/YEleEGAFGZBK2hDUx5fOuu+5qou3ee+/tDjnkkCbYlCNoCVHlQEi7VuKU2Coxa0fVbrNdV+JPOZ/qrVu3bss5bSjrvkQk8XvYYYc1sag+Ia0OMXnRRRe1skSgHXmiz/vJ+qkdZe3IegggELVv15uI1L6+uaYd5w466KC2M0z8E5nGMWa31USfjMODiocDdvDwUb9KwLyY18svv7zNJRt6/cM5c0w8a4fQLpFNqBsz+3hAYRPl3Kceiux215xFZIcQQghhLbNske3VCru5BBcBRXATtEceeWQTV/UONjFEsCn74YcfNiFLaKtHjNkFJlLvv//+Vl77PrVFCKrz/vvvN9FLaPsjDok/de2k+tOmtu2W1z/oO+GEE9pDgLEQhOrYUdVfxwRgvS6hTbuuhLm+ENNek1DXWM8777wmFtVnFwLUd+LajjeBSEBq2xhmTWTrn/7bwWdTNvKdnTxw2OEmlglqDxCEuIcT82aeCHDn2WtSZLO5eWAP86QtYlv75oh9iPCI7BBCCCGsdZYtsgkw4skrCF75IIoJN7ulXu8gtohj7RDZdp21RwjbKbUbrD7hddRRR7UyQ5GtvB1pAsoxsVeCmnjzOgK04x4Esu/EPZGsHYKXGPZdffXsNnu9RD8JacLODiyBqZ6+eH3CNeLbGIhs14lHbbqf94+JdHVq99puMDHptZJZFNn670GFyCasiWd28DCj7+bQ6y6O/QIB86CMHX12MC4MRba59jDDNvvtt1/7BYPI9uBCtB966KHtISz/8DGEEEIIa52piGzi2jGxa8dSWQLKf03CO9hEGqFKtNoJ1h4hTGQTu4SYf2znHWrnhyKbIC6RrA3vBVd5os6urHsSdPpqJ1sbdlXV9V8CsbNKiOnTMccc04Sga14J0Td9tFutPUKbcPRai/6rq9/qEoZEeglz7bivet7ddo3IJkT1eRZFtv4R1nak2ZAdPAwZIzHsYYl9CWE71h5+2J6NzbU5YCvjmtzJNn4CnID/9re/vUVka0cbHqb23HPPZquI7BBCCCGsZabyuohdToKS6CS46x8gEnFezfCP4Yhpu9TO2xW220182TklWIlidQlb9yQGlSvxqwwhR6wR6sqq4x52XL2uoZ/uR0QSeMcdd1wT3Ha31dNfwp5wttPtdRb1iUNjsMNbfSGSCUj19d8uNeGpDqFJnGoHzhu7HWD9JjqJy1kU2frjwcPDhF8I2M4Y6x99eueaDT18sClx7ZURvzx4iPKQ4yFj+LoIwawN86me62xqvrXnlwftE/J2+COyQwghhLDWWZbIds7OJ6FNUBJddjsJaELTMUFK9BLTRBVBVEKP8PXdNcLLdSLbzqrdUHgdA9okZIlY93OsLWKvdqm15bu2iWdtEXfO6af+EO36o5/aVUd7yuqrfuiPvqljnESj1x2q/865RlzbtdaG+xGcw+9DW80S+mjs5qjs5RxbEdRsZAxQxrjNLwFNHFd5GGe9RlK2U8Z35wvnwc7KouZssn8R2SGEEEKYd5YlsuE8oVvHvnvNgxh2TNgSTY59r7LqOfbdddi5JlztAtsVtmtMWGsPVbfuMTyu/tV3aNNxlYN7Vt26v+/KVh19nWynrldbw/N1PLxW32cVYx+O0znf4ZpzUGb4vY6V90msE8wlrktME+d1buw8PNRUW0PYNCI7hBBCCPPMskX2tHEfIq/YUfcN2465saNP5NrR3hb8UrDQ6zQR2SGEEEKYd2ZOZIf5hGDeFsbaKCKyQwghhDDvRGSHmSMiO4QQQgjzTkR2mDkiskMIIYQw70Rkh5kjIjuEEEII805Edpg5IrJDCCGEMO9EZIeZIyI7hBBCCPNORHaYOSKyQwghhDDvLFlkD/8HJSGsJET2mB+OEZEdQgghhFkkO9lh5shOdgghhBDmnYjsMHNEZIcQQghh3onIDjNHRHYIIYQQ5p2I7DBzRGSHEEIIYd6JyA4zR0R2CCGEEOaduRHZ07i/NibbGTsXls9ybLotIhsvv/xy+6/fbEudEEIIIYSVZG5E9ltvvTV6flvQxrCdd999t3vssce6hx56qHvnnXc+VjYsj8XmiyAeO19sq8h+6aWX2vxFZIcQQghhVpiKyHZt8r+jXeeHVJmxesPyk+cItg0bNrTXAoipyXYco46rnWEZ9Z588snu7rvv3lLe2G688cbuyiuvbMKuyobth83ffPPN7oEHHuheffXVLXM1nAvnzenw3BBzsZRXP4jq9957r3vxxRe7999/f7RMCCGEEMJqsGyR7TzBtGnTpkV3L6GMzxJdyr/xxhtb2q5zRFqdI9KUueGGG7bsWGpHmeF1x75PtuMYdq0fffTR7tZbb21tKOPzpptu6q6++uqI7CnBrubjrrvu6l555ZU2JzUXNVc333xzm8ua40mUI56J6MV2pwlx7XpdJO9jhxBCCGGWWJbIJobsLl9++eXdOeec0167ePDBB7t777237Szed9993eOPP95eybj++uu78847r31qi1AmbtV75JFHmvgigK+44oru4osv7u65557WxrPPPtuEsJ3sjRs3NvF29tlnd1dddVUTb9o+99xzu4suuqgJt9dee62JuEsuuaS78847m5DWV59PPPFEq+/++nHhhRd2p512WnfddddFZE8JtiV877///iay+cQdd9zRHpL8koBTTz212bxE+GT9119/ve1Om1++Nya0nXPthRdeaOUiskMIIYQwSyxLZNttXL9+fRNNBPVzzz3XXr249NJLO3+XXXZZd9ttt3XXXnttd/zxxzfxfcIJJzRRffvtt3fr1q1rgvjMM8/snnnmme6www5r4pggI34JXwKbOIed6JNOOqm75ZZbmogj8E8//fQmmN0LxNlBBx3U2nnqqae2iDh9JfaUefjhh1s/9OeYY45pfXZ9cnxh2+EnHpg8QBHA5sHDE1t7MHr66afbQ5HXSTxojfmVByJtmEtzbA75Ye1sl8B2zT0m/TWEEEIIYbVZlsgmgu0WE752lO08E6x2tj/88MP2nZgmsq+55pomvH0SW3ajCWnXDjnkkCaatUM4uZdrRLvd5hLkdqLPOOOMJsJrF/vEE09s/bArSuwT0M5573e4O01E66s+Ff6IQd8jsqdDiWzzSgCzLbHsPFs///zzzT/sVtevDJN4tQd2xLXhYal2vbVDnDuvLeXGdrpDCCGEEFaTZYls54hdr3KcfPLJTQwTUl758EdgOWen2Y61v3qVgyA+//zz26408WuH86yzzmrii1i341yvkxBTPr0O4vUR9YhuO6REN4HsNRHC3I66XW8CbdjnEtkEfu2W+7MT7z55XWQ6sHmJbPPm04MTP/GKiPkzt179mXxVpOrzAQ9YhDQ8OJlXv3ZoE0S3OY3ADiGEEMIssmyRTSz5JKYJXjvVdp8JIEKaACe0iGRClkAmtL137VUQbWuLmCKS7UA7Z2fbax/KEWjatqNJPBPUdquJd3X0waskyngHnFgn9IZ91h+vi3gAcN8LLrignfNJ9PleZcP2w+Zszw+IYZ/+YaI55AfEs9eJ7G6PiWw4b5dbHQ9WfsEgzrXrPD+q10bG/DWEEEIIYbVZlsj2U713bQlnr3/UP27z/jVxXO9hO+99a7vP9UoIMUwoez+XWCayfSeytWuncr/99mu71USXe3g9hCDWjve4CTXCzXdi2061c3ayh4KsRJl/TGl3nXDzAOAfS3o3W/+ykz0dSmSzqTn1WSLbd3PvIYf4HvuHjzAX2lHPfGqPD5pD/8Ax4jqEEEIIs86yRDaBRAT5x412ieu/i+y/KGFn285z7Wp6D9d/2YMIJ36Vs/tsV9uncl4ZGb7m4R9I2qX23asC2rfD7RUT7RDjdrXdi4Am5Kodbeib8v6RnT5pg/BTT339tktKzI2NL2wf5oGd691pc+K8764R2ubDfE7a3bHXReyC+/QLQ4R1CCGEEOaNZYlsEMveoSaGalfSTqRjYlZdu8+EsT/nqq5y6jqn/eG1ul5tVplhHedddy+4Xu2AuPbqiFdV4FUFdau96mPdI0wPD1Lmoj7rnE/2rt3qYZ0h5oWwjrgOIYQQwjyybJG9NQhZr3TYNSasxsqsFHbF7abaSYVd1LFyYbbgJ/nvXocQQghhnllxka2e1zG8f7u9bWwv7jdkrEyYPYjs7GCHEEIIYZ5ZcZGNegd77FoIk0RkhxBCCGHe2SEiO4RtISI7hBBCCPNORHaYOSKyQwghhDDvRGSHmSMiO4QQQgjzTkR2mDkiskMIIYQw70Rkh5kjIjuEEEII886SRbb/QkgIOwL/bfUxPwwhhBBCmBeWJLJBaIewoxjzwRBCCCGEeWHJIjuEEEIIIYSwNCKyQwghhBBCmDIR2SGEEEIIIUyZiOwQQgghhBCmTER2CCGEEEIIUyYiO4QQQgghhCkTkR1CCCGEEMKUicgOIYQQQghhykRkhxBCCCGEMGUiskMIIYQQQpgyEdkhhBBCCCFMmYjsEEIIIYQQpkxEdgghhBBCCFMmIjuEEEIIIYQpE5EdQgghhBDClInIDiGEEEIIYcpEZIcQQgghhDBlIrJDCCGEEEKYMhHZIYQQQgghTJmI7BBCCCGEEKZMRHYIIYQQQghTJiI7hBBCCCGEKRORHUIIIYQQwpSJyA4hhBBCCGHKRGSHEEIIIYQwZSKyQwghhBBCmDIR2SGEEEIIIUyZiOwQQgghhBCmTER2CCGEEEIIUyYiO4QQQgghhCkTkR1CCCGEEMKUicgOIYQQQghhykRkhxBCCCGEMGUiskMIIYQQQpgyEdkhhBBCCCFMmYjsEEIIIYQQpkxEdgghhBBCCFMmIjuEEEIIIYQpE5EdQgghhBDClInIDiGEEEIIYcpEZIcQQgghhDBlIrJDCCGEEEKYMhHZIYQQQgghTJmI7BBCCCGEEKZMRHYIIYQQQghTJiI7hBBCCCGEKRORHUIIIYQQwpSJyA4hhBBCCGHKRGSHEEIIIYQwZSKyQwghhBBCmDIR2SGEEEIIIUyZiOwQQgghhBCmTER2CCGEEEIIUyYiO4QQQgghhCkTkR1CCCGEEMKUicgOIYQQQghhqvy8+78BLAjhnBZq2TAAAAAASUVORK5CYII=;" vertex="1" parent="1">
          <mxGeometry x="90" y="10" width="729" height="334" as="geometry" />
        </mxCell>
        <mxCell id="6jkIBEpxTAbTdTaplVtH-11" style="edgeStyle=orthogonalEdgeStyle;rounded=0;orthogonalLoop=1;jettySize=auto;html=1;exitX=1;exitY=0.5;exitDx=0;exitDy=0;entryX=0;entryY=0.5;entryDx=0;entryDy=0;" edge="1" parent="1" source="6jkIBEpxTAbTdTaplVtH-4" target="6jkIBEpxTAbTdTaplVtH-5">
          <mxGeometry relative="1" as="geometry" />
        </mxCell>
        <mxCell id="6jkIBEpxTAbTdTaplVtH-4" value="Departamento" style="ellipse;whiteSpace=wrap;html=1;" vertex="1" parent="1">
          <mxGeometry x="360" y="430" width="120" height="80" as="geometry" />
        </mxCell>
        <mxCell id="6jkIBEpxTAbTdTaplVtH-12" style="edgeStyle=orthogonalEdgeStyle;rounded=0;orthogonalLoop=1;jettySize=auto;html=1;exitX=1;exitY=0.5;exitDx=0;exitDy=0;entryX=0;entryY=0.5;entryDx=0;entryDy=0;" edge="1" parent="1" source="6jkIBEpxTAbTdTaplVtH-5" target="6jkIBEpxTAbTdTaplVtH-6">
          <mxGeometry relative="1" as="geometry" />
        </mxCell>
        <mxCell id="6jkIBEpxTAbTdTaplVtH-5" value="tiene" style="rhombus;whiteSpace=wrap;html=1;" vertex="1" parent="1">
          <mxGeometry x="520" y="430" width="80" height="80" as="geometry" />
        </mxCell>
        <mxCell id="6jkIBEpxTAbTdTaplVtH-13" style="edgeStyle=orthogonalEdgeStyle;rounded=0;orthogonalLoop=1;jettySize=auto;html=1;exitX=1;exitY=0.5;exitDx=0;exitDy=0;entryX=0;entryY=0.5;entryDx=0;entryDy=0;" edge="1" parent="1" source="6jkIBEpxTAbTdTaplVtH-6" target="6jkIBEpxTAbTdTaplVtH-7">
          <mxGeometry relative="1" as="geometry" />
        </mxCell>
        <mxCell id="6jkIBEpxTAbTdTaplVtH-6" value="Asignacion" style="ellipse;whiteSpace=wrap;html=1;" vertex="1" parent="1">
          <mxGeometry x="640" y="430" width="120" height="80" as="geometry" />
        </mxCell>
        <mxCell id="6jkIBEpxTAbTdTaplVtH-14" style="edgeStyle=orthogonalEdgeStyle;rounded=0;orthogonalLoop=1;jettySize=auto;html=1;exitX=0.5;exitY=1;exitDx=0;exitDy=0;entryX=0.5;entryY=0;entryDx=0;entryDy=0;" edge="1" parent="1" source="6jkIBEpxTAbTdTaplVtH-7" target="6jkIBEpxTAbTdTaplVtH-8">
          <mxGeometry relative="1" as="geometry" />
        </mxCell>
        <mxCell id="6jkIBEpxTAbTdTaplVtH-7" value="tiene" style="rhombus;whiteSpace=wrap;html=1;" vertex="1" parent="1">
          <mxGeometry x="790" y="430" width="80" height="80" as="geometry" />
        </mxCell>
        <mxCell id="6jkIBEpxTAbTdTaplVtH-8" value="Supervision" style="ellipse;whiteSpace=wrap;html=1;" vertex="1" parent="1">
          <mxGeometry x="770" y="550" width="120" height="80" as="geometry" />
        </mxCell>
        <mxCell id="6jkIBEpxTAbTdTaplVtH-10" style="edgeStyle=orthogonalEdgeStyle;rounded=0;orthogonalLoop=1;jettySize=auto;html=1;exitX=1;exitY=0.5;exitDx=0;exitDy=0;entryX=-0.023;entryY=0.6;entryDx=0;entryDy=0;entryPerimeter=0;" edge="1" parent="1" source="6jkIBEpxTAbTdTaplVtH-2" target="6jkIBEpxTAbTdTaplVtH-4">
          <mxGeometry relative="1" as="geometry" />
        </mxCell>
        <mxCell id="6jkIBEpxTAbTdTaplVtH-15" value="N:1" style="text;html=1;align=center;verticalAlign=middle;resizable=0;points=[];autosize=1;strokeColor=none;fillColor=none;" vertex="1" parent="1">
          <mxGeometry x="210" y="418" width="40" height="30" as="geometry" />
        </mxCell>
        <mxCell id="6jkIBEpxTAbTdTaplVtH-16" value="1:N" style="text;html=1;align=center;verticalAlign=middle;resizable=0;points=[];autosize=1;strokeColor=none;fillColor=none;" vertex="1" parent="1">
          <mxGeometry x="520" y="398" width="40" height="30" as="geometry" />
        </mxCell>
        <mxCell id="6jkIBEpxTAbTdTaplVtH-17" value="N:N" style="text;html=1;align=center;verticalAlign=middle;resizable=0;points=[];autosize=1;strokeColor=none;fillColor=none;" vertex="1" parent="1">
          <mxGeometry x="830" y="408" width="40" height="30" as="geometry" />
        </mxCell>
      </root>
    </mxGraphModel>
  </diagram>
</mxfile>
